# Blender v2.90.0 OBJ File: ''
# www.blender.org
mtllib untitled16.mtl
o Sphere.017
v 0.000000 0.980785 -0.195090
v 0.000000 0.923880 -0.382683
v 0.000000 0.831470 -0.555570
v 0.000000 0.707107 -0.707107
v 0.000000 0.555570 -0.831470
v 0.000000 0.382683 -0.923880
v 0.038060 0.980785 -0.191342
v 0.074658 0.923880 -0.375330
v 0.108386 0.831470 -0.544895
v 0.137950 0.707107 -0.693520
v 0.162212 0.555570 -0.815493
v 0.180240 0.382683 -0.906127
v 0.074658 0.980785 -0.180240
v 0.146447 0.923880 -0.353553
v 0.212608 0.831470 -0.513280
v 0.270598 0.707107 -0.653281
v 0.108387 0.980785 -0.162212
v 0.212608 0.923880 -0.318190
v 0.308658 0.831470 -0.461940
v 0.137950 0.980785 -0.137950
v 0.270598 0.923880 -0.270598
v 0.162212 0.980785 -0.108386
v 0.318190 0.923880 -0.212607
v 0.180240 0.980785 -0.074658
v 0.191342 0.980785 -0.038060
v 0.195091 0.980785 0.000000
v 0.191342 0.980785 0.038061
v 0.180240 0.980785 0.074658
v 0.162212 0.980785 0.108387
v 0.137950 0.980785 0.137950
v 0.108386 0.980785 0.162212
v 0.074658 0.980785 0.180240
v 0.038060 0.980785 0.191342
v -0.000000 0.980785 0.195091
v -0.038060 0.980785 0.191342
v -0.074658 0.980785 0.180240
v -0.108386 0.980785 0.162212
v -0.000000 1.000000 0.000001
v -0.137950 0.980785 0.137950
v -0.162212 0.980785 0.108387
v -0.180240 0.980785 0.074658
v -0.191342 0.980785 0.038061
v -0.375330 0.923880 0.074658
v -0.195090 0.980785 0.000000
v -0.382683 0.923880 0.000000
v -0.555570 0.831470 0.000000
v -0.191342 0.980785 -0.038060
v -0.375330 0.923880 -0.074658
v -0.544895 0.831470 -0.108386
v -0.180240 0.980785 -0.074658
v -0.353553 0.923880 -0.146446
v -0.513280 0.831470 -0.212607
v -0.653281 0.707107 -0.270598
v -0.162212 0.980785 -0.108386
v -0.318190 0.923880 -0.212607
v -0.461940 0.831470 -0.308658
v -0.587938 0.707107 -0.392847
v -0.137950 0.980785 -0.137949
v -0.270598 0.923880 -0.270598
v -0.392847 0.831470 -0.392847
v -0.500000 0.707107 -0.500000
v -0.108386 0.980785 -0.162211
v -0.212607 0.923880 -0.318189
v -0.308658 0.831470 -0.461939
v -0.392847 0.707107 -0.587937
v -0.461939 0.555570 -0.691341
v -0.074658 0.980785 -0.180240
v -0.146447 0.923880 -0.353553
v -0.212607 0.831470 -0.513280
v -0.270598 0.707107 -0.653281
v -0.318189 0.555570 -0.768177
v -0.038060 0.980785 -0.191342
v -0.074658 0.923880 -0.375330
v -0.108386 0.831470 -0.544895
v -0.137950 0.707107 -0.693520
v -0.162211 0.555570 -0.815492
v 0.000000 0.316896 -0.943836
v -0.720984 0.617813 -0.298641
v -0.656006 0.607353 -0.438329
v -0.571522 0.583858 -0.571522
v -0.464982 0.545324 -0.695895
v -0.492002 0.555570 -0.666670
v -0.332161 0.487264 -0.801908
v -0.177147 0.412340 -0.890579
v -0.120438 0.382683 -0.912017
v 0.185007 0.302138 -0.930091
v 0.067572 0.277426 -0.949154
v 0.299969 0.613586 -0.724190
v 0.290721 0.555570 -0.776510
v 0.257065 0.382683 -0.882823
v 0.323438 0.809638 -0.484059
v 0.313697 0.707107 -0.630245
v 0.323750 0.883702 -0.323749
v 0.324973 0.831470 -0.448550
v 0.320715 0.922256 -0.214295
v 0.314299 0.936768 -0.130187
v 0.320431 0.923880 -0.208414
v 0.307974 0.944712 -0.061260
v 0.301472 0.948515 0.000000
v 0.294383 0.948916 0.058557
v 0.286217 0.945989 0.118555
v 0.276259 0.939177 0.184591
v 0.263297 0.927012 0.263298
v 0.260539 0.923880 0.278854
v 0.243015 0.319722 -0.906947
v 0.194352 0.933848 0.290868
v 0.117375 0.946924 0.283368
v 0.054666 0.954966 0.274823
v 0.000000 0.959546 0.265108
v -0.050511 0.961425 0.253936
v -0.099757 0.960889 0.240836
v -0.150378 0.957858 0.225056
v -0.205384 0.951856 0.205385
v -0.269010 0.941822 0.179747
v -0.348364 0.925583 0.144297
v -0.438826 0.889275 0.087288
v -0.355220 0.923880 0.140954
v -0.559002 0.828653 0.000000
v -0.555216 0.831470 0.003596
v -0.681781 0.716929 -0.135614
v -0.690753 0.707107 -0.147071
v -0.738461 0.616999 -0.243317
v -0.433438 0.449831 -0.321182
v 0.242284 0.923880 0.293835
v 0.225370 0.706297 0.086579
v 0.257459 0.918990 0.293158
vt 0.750000 0.875000
vt 0.750000 0.937500
vt 0.718750 0.937500
vt 0.718750 0.875000
vt 0.750000 0.812500
vt 0.718750 0.812500
vt 0.750000 0.750000
vt 0.718750 0.750000
vt 0.750000 0.687500
vt 0.718750 0.687500
vt 0.750000 0.625000
vt 0.718750 0.625000
vt 0.734375 1.000000
vt 0.703125 1.000000
vt 0.687500 0.937500
vt 0.687500 0.875000
vt 0.687500 0.812500
vt 0.687500 0.750000
vt 0.687500 0.711428
vt 0.676483 0.750000
vt 0.671875 1.000000
vt 0.656250 0.937500
vt 0.656250 0.875000
vt 0.656250 0.812500
vt 0.625000 0.937500
vt 0.625000 0.875000
vt 0.656250 0.801528
vt 0.650194 0.812500
vt 0.640625 1.000000
vt 0.609375 1.000000
vt 0.593750 0.937500
vt 0.593750 0.875000
vt 0.625000 0.847826
vt 0.593750 0.873902
vt 0.591769 0.875000
vt 0.578125 1.000000
vt 0.562500 0.937500
vt 0.546875 1.000000
vt 0.531250 0.937500
vt 0.562500 0.889156
vt 0.531250 0.897881
vt 0.515625 1.000000
vt 0.500000 0.937500
vt 0.500000 0.902057
vt 0.484374 1.000000
vt 0.468750 0.937500
vt 0.468750 0.902497
vt 0.453124 1.000000
vt 0.437500 0.937500
vt 0.437500 0.899283
vt 0.421874 1.000000
vt 0.406250 0.937500
vt 0.406250 0.891801
vt 0.390625 1.000000
vt 0.375000 0.937500
vt 0.375000 0.878440
vt 0.359375 1.000000
vt 0.343750 0.937500
vt 0.365181 0.871693
vt 0.369579 0.875000
vt 0.359742 0.875000
vt 0.328125 1.000000
vt 0.312500 0.937500
vt 0.343750 0.885948
vt 0.312500 0.900310
vt 0.296875 1.000000
vt 0.281250 0.937500
vt 0.281250 0.909142
vt 0.265625 1.000000
vt 0.250000 0.937500
vt 0.250000 0.914173
vt 0.218750 0.937500
vt 0.218750 0.916237
vt 0.234375 1.000000
vt 0.203125 1.000000
vt 0.187500 0.937500
vt 0.187500 0.915648
vt 0.156250 0.937500
vt 0.156250 0.912318
vt 0.171875 1.000000
vt 0.140625 1.000000
vt 0.125000 0.937500
vt 0.125000 0.905727
vt 0.109375 1.000000
vt 0.093750 0.937500
vt 0.093750 0.894706
vt 0.078125 1.000000
vt 0.062500 0.937500
vt 0.062500 0.876871
vt 0.046875 1.000000
vt 0.031250 0.937500
vt 0.031250 0.875000
vt 0.060109 0.875000
vt 0.031250 0.851596
vt 0.015625 1.000000
vt 0.000000 0.937500
vt 0.000000 0.875000
vt 0.000000 0.812500
vt 0.001037 0.812500
vt 0.000000 0.811085
vt 1.000000 0.811085
vt 1.000000 0.812500
vt 0.968750 0.812500
vt 0.968750 0.754937
vt 1.000000 0.937500
vt 0.984375 1.000000
vt 0.968750 0.937500
vt 1.000000 0.875000
vt 0.968750 0.875000
vt 0.953125 1.000000
vt 0.937500 0.937500
vt 0.937500 0.875000
vt 0.937500 0.812500
vt 0.937500 0.750000
vt 0.966601 0.750000
vt 0.949337 0.712836
vt 0.937500 0.713172
vt 0.906250 0.750000
vt 0.906250 0.708858
vt 0.921875 1.000000
vt 0.906250 0.937500
vt 0.906250 0.875000
vt 0.906250 0.812500
vt 0.890625 1.000000
vt 0.875000 0.937500
vt 0.875000 0.875000
vt 0.875000 0.812500
vt 0.875000 0.750000
vt 0.875000 0.699167
vt 0.843750 0.750000
vt 0.843750 0.687500
vt 0.851206 0.687500
vt 0.843750 0.683796
vt 0.859375 1.000000
vt 0.843750 0.937500
vt 0.843750 0.875000
vt 0.843750 0.812500
vt 0.812500 0.937500
vt 0.812500 0.875000
vt 0.812500 0.812500
vt 0.812500 0.750000
vt 0.812500 0.687500
vt 0.812500 0.662807
vt 0.828125 1.000000
vt 0.781250 0.687500
vt 0.781250 0.635721
vt 0.796875 1.000000
vt 0.781250 0.937500
vt 0.781250 0.875000
vt 0.781250 0.812500
vt 0.781250 0.750000
vt 0.770882 0.625000
vt 0.750000 0.603082
vt 0.765625 1.000000
vt 0.718750 0.598165
vt 0.738929 0.589932
vt 0.704898 0.625000
vt 0.708201 0.604023
vt 0.693003 0.687500
vt 0.426920 0.765743
vt 0.328341 0.651144
vt 0.401469 0.651144
vn 0.0286 0.9565 -0.2902
vn 0.0464 0.8810 -0.4709
vn 0.0624 0.7715 -0.6332
vn 0.0759 0.6326 -0.7708
vn 0.0865 0.4696 -0.8786
vn 0.0097 0.9951 -0.0980
vn 0.0286 0.9951 -0.0942
vn 0.0846 0.9565 -0.2790
vn 0.1374 0.8810 -0.4528
vn 0.1847 0.7715 -0.6088
vn 0.3651 0.6326 -0.6831
vn 0.0464 0.9951 -0.0869
vn 0.1374 0.9565 -0.2571
vn 0.2230 0.8810 -0.4173
vn 0.1850 0.9565 -0.2254
vn 0.4036 0.7715 -0.4918
vn 0.0625 0.9951 -0.0761
vn 0.0761 0.9951 -0.0625
vn 0.2254 0.9565 -0.1850
vn 0.3658 0.8810 -0.3002
vn 0.4173 0.8810 -0.2231
vn 0.0869 0.9951 -0.0464
vn 0.0942 0.9951 -0.0286
vn 0.2790 0.9565 -0.0846
vn 0.0980 0.9951 -0.0097
vn 0.2902 0.9565 -0.0286
vn 0.0980 0.9951 0.0097
vn 0.2902 0.9565 0.0286
vn 0.0942 0.9951 0.0286
vn 0.2790 0.9565 0.0846
vn 0.0869 0.9951 0.0464
vn 0.2571 0.9565 0.1374
vn 0.0761 0.9951 0.0625
vn 0.2254 0.9565 0.1850
vn 0.0625 0.9951 0.0761
vn 0.3002 0.8810 0.3658
vn 0.0464 0.9951 0.0869
vn 0.1374 0.9565 0.2571
vn 0.0286 0.9951 0.0942
vn 0.0846 0.9565 0.2790
vn 0.0097 0.9951 0.0980
vn 0.0286 0.9565 0.2902
vn -0.0286 0.9565 0.2902
vn -0.0097 0.9951 0.0980
vn -0.0286 0.9951 0.0942
vn -0.0846 0.9565 0.2790
vn -0.1374 0.9565 0.2571
vn -0.0464 0.9951 0.0869
vn -0.0625 0.9951 0.0761
vn -0.1850 0.9566 0.2254
vn -0.0761 0.9951 0.0625
vn -0.2254 0.9565 0.1850
vn -0.0869 0.9951 0.0464
vn -0.2571 0.9565 0.1374
vn -0.0942 0.9951 0.0286
vn -0.2790 0.9565 0.0846
vn -0.4528 0.8810 0.1374
vn -0.0980 0.9951 0.0097
vn -0.2902 0.9565 0.0286
vn -0.4709 0.8810 0.0464
vn -0.6332 0.7715 0.0624
vn -0.6332 0.7715 -0.0624
vn -0.0980 0.9951 -0.0097
vn -0.2902 0.9565 -0.0286
vn -0.4709 0.8810 -0.0464
vn -0.0942 0.9951 -0.0286
vn -0.2790 0.9565 -0.0846
vn -0.4528 0.8810 -0.1374
vn -0.6088 0.7715 -0.1847
vn -0.7412 0.6326 -0.2248
vn -0.6831 0.6326 -0.3651
vn -0.0869 0.9951 -0.0464
vn -0.2571 0.9565 -0.1374
vn -0.4173 0.8810 -0.2231
vn -0.5611 0.7715 -0.2999
vn -0.0761 0.9951 -0.0625
vn -0.2254 0.9565 -0.1850
vn -0.3658 0.8810 -0.3002
vn -0.4918 0.7715 -0.4036
vn -0.5987 0.6326 -0.4913
vn -0.4913 0.6326 -0.5987
vn -0.5601 0.4696 -0.6825
vn -0.0625 0.9951 -0.0761
vn -0.1850 0.9565 -0.2254
vn -0.3002 0.8810 -0.3658
vn -0.4036 0.7715 -0.4918
vn -0.1374 0.9565 -0.2571
vn -0.2230 0.8810 -0.4173
vn -0.2999 0.7715 -0.5611
vn -0.3651 0.6326 -0.6831
vn -0.4162 0.4696 -0.7786
vn -0.0464 0.9951 -0.0869
vn -0.2563 0.4696 -0.8448
vn -0.0286 0.9951 -0.0942
vn -0.0846 0.9565 -0.2790
vn -0.1374 0.8810 -0.4528
vn -0.1847 0.7715 -0.6088
vn -0.2248 0.6326 -0.7412
vn -0.0464 0.8810 -0.4709
vn -0.0624 0.7715 -0.6332
vn -0.0759 0.6326 -0.7708
vn -0.0865 0.4696 -0.8786
vn -0.0938 0.2890 -0.9527
vn -0.0097 0.9951 -0.0980
vn -0.0286 0.9565 -0.2902
vn 0.0938 0.2890 -0.9527
vn 0.2571 0.9565 -0.1374
vn 0.3002 0.8810 -0.3658
vn 0.2999 0.7715 -0.5611
vn 0.2779 0.2890 -0.9161
vn 0.2563 0.4696 -0.8448
vn 0.2248 0.6326 -0.7412
vn -0.9586 0.2591 -0.1178
vn -0.1355 0.9225 -0.3614
vn -0.5069 -0.8446 -0.1726
vn 0.1850 0.9565 0.2254
vn -0.1839 -0.6704 0.7188
usemtl None
s off
f 2/1/1 1/2/1 7/3/1 8/4/1
f 3/5/2 2/1/2 8/4/2 9/6/2
f 4/7/3 3/5/3 9/6/3 10/8/3
f 5/9/4 4/7/4 10/8/4 11/10/4
f 6/11/5 5/9/5 11/10/5 12/12/5
f 1/2/6 38/13/6 7/3/6
f 7/3/7 38/14/7 13/15/7
f 8/4/8 7/3/8 13/15/8 14/16/8
f 9/6/9 8/4/9 14/16/9 15/17/9
f 10/8/10 9/6/10 15/17/10 16/18/10
f 88/19/11 16/18/11 92/20/11
f 13/15/12 38/21/12 17/22/12
f 14/16/13 13/15/13 17/22/13 18/23/13
f 15/17/14 14/16/14 18/23/14 19/24/14
f 18/23/15 17/22/15 20/25/15 21/26/15
f 91/27/16 19/24/16 94/28/16
f 17/22/17 38/29/17 20/25/17
f 20/25/18 38/30/18 22/31/18
f 21/26/19 20/25/19 22/31/19 23/32/19
f 93/33/20 21/26/20 23/32/20 95/34/20
f 95/34/21 23/32/21 97/35/21
f 22/31/22 38/36/22 24/37/22
f 24/37/23 38/38/23 25/39/23
f 96/40/24 24/37/24 25/39/24 98/41/24
f 25/39/25 38/42/25 26/43/25
f 98/41/26 25/39/26 26/43/26 99/44/26
f 26/43/27 38/45/27 27/46/27
f 99/44/28 26/43/28 27/46/28 100/47/28
f 27/46/29 38/48/29 28/49/29
f 100/47/30 27/46/30 28/49/30 101/50/30
f 28/49/31 38/51/31 29/52/31
f 101/50/32 28/49/32 29/52/32 102/53/32
f 29/52/33 38/54/33 30/55/33
f 102/53/34 29/52/34 30/55/34 103/56/34
f 30/55/35 38/57/35 31/58/35
f 126/59/36 104/60/36 124/61/36
f 31/58/37 38/62/37 32/63/37
f 106/64/38 31/58/38 32/63/38 107/65/38
f 32/63/39 38/66/39 33/67/39
f 107/65/40 32/63/40 33/67/40 108/68/40
f 33/67/41 38/69/41 34/70/41
f 108/68/42 33/67/42 34/70/42 109/71/42
f 109/71/43 34/70/43 35/72/43 110/73/43
f 34/70/44 38/74/44 35/72/44
f 35/72/45 38/75/45 36/76/45
f 110/73/46 35/72/46 36/76/46 111/77/46
f 111/77/47 36/76/47 37/78/47 112/79/47
f 36/76/48 38/80/48 37/78/48
f 37/78/49 38/81/49 39/82/49
f 112/79/50 37/78/50 39/82/50 113/83/50
f 39/82/51 38/84/51 40/85/51
f 113/83/52 39/82/52 40/85/52 114/86/52
f 40/85/53 38/87/53 41/88/53
f 114/86/54 40/85/54 41/88/54 115/89/54
f 41/88/55 38/90/55 42/91/55
f 115/89/56 41/88/56 42/91/56 43/92/56 117/93/56
f 116/94/57 117/93/57 43/92/57
f 42/91/58 38/95/58 44/96/58
f 43/92/59 42/91/59 44/96/59 45/97/59
f 116/94/60 43/92/60 45/97/60 46/98/60 119/99/60
f 118/100/61 119/99/61 46/98/61
f 118/101/62 46/102/62 49/103/62 120/104/62
f 44/105/63 38/106/63 47/107/63
f 45/108/64 44/105/64 47/107/64 48/109/64
f 46/102/65 45/108/65 48/109/65 49/103/65
f 47/107/66 38/110/66 50/111/66
f 48/109/67 47/107/67 50/111/67 51/112/67
f 49/103/68 48/109/68 51/112/68 52/113/68
f 120/104/69 49/103/69 52/113/69 53/114/69 121/115/69
f 122/116/70 121/115/70 53/114/70 78/117/70
f 78/117/71 53/114/71 57/118/71 79/119/71
f 50/111/72 38/120/72 54/121/72
f 51/112/73 50/111/73 54/121/73 55/122/73
f 52/113/74 51/112/74 55/122/74 56/123/74
f 53/114/75 52/113/75 56/123/75 57/118/75
f 54/121/76 38/124/76 58/125/76
f 55/122/77 54/121/77 58/125/77 59/126/77
f 56/123/78 55/122/78 59/126/78 60/127/78
f 57/118/79 56/123/79 60/127/79 61/128/79
f 79/119/80 57/118/80 61/128/80 80/129/80
f 80/129/81 61/128/81 65/130/81 66/131/81 82/132/81
f 81/133/82 82/132/82 66/131/82
f 58/125/83 38/134/83 62/135/83
f 59/126/84 58/125/84 62/135/84 63/136/84
f 60/127/85 59/126/85 63/136/85 64/137/85
f 61/128/86 60/127/86 64/137/86 65/130/86
f 63/136/87 62/135/87 67/138/87 68/139/87
f 64/137/88 63/136/88 68/139/88 69/140/88
f 65/130/89 64/137/89 69/140/89 70/141/89
f 66/131/90 65/130/90 70/141/90 71/142/90
f 81/133/91 66/131/91 71/142/91 83/143/91
f 62/135/92 38/144/92 67/138/92
f 83/143/93 71/142/93 76/145/93 84/146/93
f 67/138/94 38/147/94 72/148/94
f 68/139/95 67/138/95 72/148/95 73/149/95
f 69/140/96 68/139/96 73/149/96 74/150/96
f 70/141/97 69/140/97 74/150/97 75/151/97
f 71/142/98 70/141/98 75/151/98 76/145/98
f 74/150/99 73/149/99 2/1/99 3/5/99
f 75/151/100 74/150/100 3/5/100 4/7/100
f 76/145/101 75/151/101 4/7/101 5/9/101
f 84/146/102 76/145/102 5/9/102 6/11/102 85/152/102
f 77/153/103 85/152/103 6/11/103
f 72/148/104 38/154/104 1/2/104
f 73/149/105 72/148/105 1/2/105 2/1/105
f 77/153/106 6/11/106 12/12/106 86/155/106 87/156/106
f 23/32/107 22/31/107 24/37/107 96/40/107 97/35/107
f 19/24/108 18/23/108 21/26/108 93/33/108 94/28/108
f 16/18/109 15/17/109 19/24/109 91/27/109 92/20/109
f 86/155/110 12/12/110 90/157/110 105/158/110
f 12/12/111 11/10/111 89/159/111 90/157/111
f 11/10/112 10/8/112 16/18/112 88/19/112 89/159/112
f 90/157/113 105/158/113 125/160/113 126/59/113 104/60/113 103/56/113 102/53/113 101/50/113 100/47/113 99/44/113 98/41/113 96/40/113 97/35/113 95/34/113 93/33/113 94/28/113 91/27/113 92/20/113 88/19/113 89/159/113
f 86/155/114 87/156/114 123/161/114 125/160/114 105/158/114
f 87/156/115 123/162/115 122/116/115 78/117/115 79/119/115 80/129/115 82/132/115 81/133/115 83/143/115 84/146/115 85/152/115 77/153/115
f 103/56/116 30/55/116 31/58/116 106/64/116 124/61/116 104/60/116
f 121/115/117 122/116/117 123/162/117 125/160/117 126/59/117 124/61/117 106/64/117 107/65/117 108/68/117 109/71/117 110/73/117 111/77/117 112/79/117 113/83/117 114/86/117 115/89/117 117/93/117 116/94/117 119/99/117 118/100/117 120/104/117
