# Blender v2.90.0 OBJ File: ''
# www.blender.org
mtllib untitled8.mtl
o Sphere.009
v 0.000000 0.195090 -0.980785
v 0.000000 0.000000 -1.000000
v 0.000000 -0.195090 -0.980785
v 0.191342 0.195090 -0.961940
v -0.693519 0.195090 -0.693519
v -0.544895 0.195090 -0.815492
v -0.555570 0.000000 -0.831469
v -0.375330 0.195090 -0.906127
v -0.382683 0.000000 -0.923879
v -0.191341 0.195090 -0.961939
v -0.195090 0.000000 -0.980785
v -0.191341 -0.195090 -0.961939
v 0.190726 0.205488 -0.958846
v 0.207440 0.195090 -0.957056
v 0.000000 0.263207 -0.960122
v -0.676373 0.275027 -0.676373
v -0.536290 0.246149 -0.802614
v -0.370790 0.234200 -0.895166
v -0.188682 0.240024 -0.948570
v 0.067572 0.277426 -0.949154
v 0.193055 0.105932 -0.970552
v 0.111609 -0.195090 -0.969793
v 0.166036 0.000000 -0.983647
v 0.214125 0.190755 -0.955473
v -0.698912 0.117656 -0.698912
v -0.739781 0.195090 -0.637150
v -0.552316 -0.059469 -0.826599
v -0.610841 0.000000 -0.786110
v -0.375392 -0.193438 -0.906277
v -0.186412 -0.278392 -0.937155
v -0.372334 -0.195090 -0.907035
v 0.000000 -0.331836 -0.939304
v -0.777239 0.315993 -0.533974
v 0.067447 -0.340424 -0.930056
vt 0.875000 0.537693
vt 0.886852 0.562500
vt 0.875000 0.562500
vt 0.843750 0.562500
vt 0.843750 0.500000
vt 0.855148 0.500000
vt 0.843750 0.480948
vt 0.812500 0.500000
vt 0.812500 0.438029
vt 0.812500 0.562500
vt 0.781250 0.562500
vt 0.781250 0.500000
vt 0.781250 0.437500
vt 0.811991 0.437500
vt 0.781250 0.409747
vt 0.750000 0.437500
vt 0.750000 0.391941
vt 0.750000 0.562500
vt 0.750000 0.500000
vt 0.718750 0.533937
vt 0.718750 0.562500
vt 0.716016 0.562500
vt 0.714908 0.561111
vt 0.718750 0.565964
vt 0.812500 0.575530
vt 0.781250 0.577470
vt 0.843750 0.579511
vt 0.875000 0.589132
vt 0.904212 0.602781
vt 0.750000 0.585194
vt 0.738929 0.589932
vt 0.731772 0.437500
vt 0.738559 0.389080
vt 0.723404 0.500000
vn -0.7693 0.0976 -0.6314
vn -0.6314 0.0976 -0.7693
vn -0.6314 -0.0976 -0.7693
vn -0.4691 -0.0976 -0.8777
vn -0.4691 0.0976 -0.8777
vn -0.2889 0.0976 -0.9524
vn -0.2889 -0.0976 -0.9524
vn -0.2779 -0.2890 -0.9161
vn -0.0938 -0.2890 -0.9527
vn -0.0976 0.0976 -0.9904
vn -0.0976 -0.0976 -0.9904
vn 0.2889 0.0975 -0.9524
vn 0.2779 0.2890 -0.9161
vn -0.2779 0.2890 -0.9161
vn -0.4513 0.2890 -0.8443
vn -0.6073 0.2890 -0.7400
vn -0.7400 0.2890 -0.6073
vn 0.0938 0.2890 -0.9527
vn -0.0938 0.2890 -0.9527
vn 0.0938 -0.2890 -0.9527
vn 0.0975 -0.0975 -0.9904
vn 0.0975 0.0975 -0.9904
usemtl None
s off
f 25/1/1 26/2/1 5/3/1
f 25/1/2 5/3/2 6/4/2 7/5/2 28/6/2
f 27/7/3 28/6/3 7/5/3
f 27/7/4 7/5/4 9/8/4 29/9/4
f 7/5/5 6/4/5 8/10/5 9/8/5
f 9/8/6 8/10/6 10/11/6 11/12/6
f 29/9/7 9/8/7 11/12/7 12/13/7 31/14/7
f 30/15/8 31/14/8 12/13/8
f 30/15/9 12/13/9 3/16/9 32/17/9
f 11/12/10 10/11/10 1/18/10 2/19/10
f 12/13/11 11/12/11 2/19/11 3/16/11
f 21/20/12 4/21/12 14/22/12 24/23/12
f 4/21/13 13/24/13 14/22/13
f 8/10/14 18/25/14 19/26/14 10/11/14
f 6/4/15 17/27/15 18/25/15 8/10/15
f 5/3/16 16/28/16 17/27/16 6/4/16
f 26/2/17 33/29/17 16/28/17 5/3/17
f 1/18/18 15/30/18 20/31/18 13/24/18 4/21/18
f 10/11/19 19/26/19 15/30/19 1/18/19
f 32/17/20 3/16/20 22/32/20 34/33/20
f 3/16/21 2/19/21 23/34/21 22/32/21
f 2/19/22 1/18/22 4/21/22 21/20/22 23/34/22
