# Blender v2.90.0 OBJ File: ''
# www.blender.org
mtllib untitled15.mtl
o Sphere.016
v -0.382684 0.000000 0.923880
v -0.544895 0.195090 0.815493
v -0.555570 0.000000 0.831470
v -0.653281 0.382683 0.653282
v -0.693520 0.195090 0.693520
v -0.707107 0.000000 0.707107
v -0.768178 0.382683 0.513280
v -0.815493 0.195090 0.544895
v -0.831470 0.000000 0.555570
v -0.815493 -0.195090 0.544895
v -0.853553 0.382683 0.353554
v -0.906127 0.195090 0.375330
v -0.923880 0.000000 0.382684
v -0.906127 -0.195090 0.375330
v -0.815493 0.555570 0.162212
v -0.906127 0.382683 0.180240
v -0.961939 0.195090 0.191342
v -0.980785 0.000000 0.195090
v -0.961939 -0.195090 0.191342
v -0.923879 0.382683 0.000000
v -0.980785 0.195090 0.000000
v -1.000000 0.000000 0.000000
v -0.980785 -0.195090 0.000000
v -0.906127 0.382683 -0.180240
v -0.961939 0.195090 -0.191342
v -0.980785 0.000000 -0.195090
v -0.961939 -0.195090 -0.191342
v -0.906127 -0.382683 -0.180240
v -0.906127 0.195090 -0.375330
v -0.923879 0.000000 -0.382683
v -0.906127 -0.195090 -0.375330
v -0.853553 -0.382683 -0.353553
v -0.815493 0.195090 -0.544895
v -0.831469 0.000000 -0.555570
v -0.815493 -0.195090 -0.544895
v -0.768178 -0.382683 -0.513280
v -0.707106 0.000000 -0.707106
v -0.693519 -0.195090 -0.693519
v -0.653281 -0.382683 -0.653281
v -0.544895 -0.195090 -0.815492
v -0.513280 -0.382683 -0.768177
v -0.375330 -0.195090 -0.906127
v -0.353553 -0.382683 -0.853553
v -0.180240 -0.382683 -0.906127
v 0.000000 -0.382683 -0.923879
v -0.194736 0.018454 0.979003
v -0.381744 -0.024915 0.921613
v -0.277156 0.000000 0.955891
v -0.551319 -0.077693 0.825107
v -0.697593 -0.136610 0.697593
v -0.814440 -0.199265 0.544191
v -0.807400 -0.195090 0.554757
v -0.887141 -0.262837 0.367466
v -0.923735 -0.323503 0.183742
v -0.924921 -0.379250 0.000000
v -0.883118 -0.426575 -0.175663
v -0.922659 -0.382683 -0.012388
v -0.812672 -0.465467 -0.336620
v -0.717995 -0.495596 -0.479749
v -0.602621 -0.516719 -0.602621
v -0.469915 -0.528712 -0.703278
v -0.323109 -0.531519 -0.780054
v -0.165386 -0.525130 -0.831450
v 0.000000 -0.509571 -0.856056
v -0.376490 0.164320 0.908927
v -0.530541 0.280262 0.794011
v -0.418880 0.195090 0.882850
v -0.732225 0.463580 0.489257
v -0.782135 0.527307 0.323971
v -0.801725 0.572675 0.159473
v -0.796016 0.555570 0.226417
v -0.194301 0.041098 0.976816
v -0.165982 0.023170 0.981371
v -0.853733 0.513919 0.000000
v -0.822162 0.555570 0.094499
v -0.874667 0.442695 -0.173982
v -0.855770 0.374772 -0.354471
v -0.859867 0.382683 -0.332738
v -0.784277 0.318852 -0.524037
v -0.800788 0.576242 0.139261
v 0.054606 -0.382683 -0.918501
v 0.013121 -0.507664 -0.855783
v -0.058765 -0.009229 0.824975
v -0.698912 0.117656 -0.698912
v -0.739781 0.195090 -0.637150
v -0.552316 -0.059469 -0.826599
v -0.610841 0.000000 -0.786110
v -0.375392 -0.193438 -0.906277
v -0.186412 -0.278392 -0.937155
v -0.372334 -0.195090 -0.907035
v 0.000000 -0.331836 -0.939304
v -0.777239 0.315993 -0.533974
v 0.067447 -0.340424 -0.930056
vt 0.223364 0.507423
vt 0.218750 0.513166
vt 0.218750 0.505912
vt 0.187500 0.492018
vt 0.205079 0.500000
vt 0.187500 0.500000
vt 0.179474 0.562500
vt 0.156250 0.590876
vt 0.156250 0.562500
vt 0.156250 0.500000
vt 0.156250 0.475110
vt 0.125000 0.562500
vt 0.125000 0.500000
vt 0.125000 0.456235
vt 0.093750 0.436109
vt 0.095824 0.437500
vt 0.093750 0.437500
vt 0.125000 0.625000
vt 0.093750 0.625000
vt 0.093750 0.562500
vt 0.093750 0.500000
vt 0.062500 0.625000
vt 0.062500 0.562500
vt 0.062500 0.500000
vt 0.062500 0.437500
vt 0.062500 0.414929
vt 0.044114 0.687500
vt 0.031250 0.694555
vt 0.031250 0.687500
vt 0.031250 0.625000
vt 0.031250 0.562500
vt 0.031250 0.500000
vt 0.031250 0.437500
vt 0.031250 0.394717
vt 0.000000 0.562500
vt 0.000000 0.500000
vt 0.000000 0.437500
vt 0.000000 0.376144
vt 0.000000 0.625000
vt 1.000000 0.562500
vt 1.000000 0.625000
vt 0.968750 0.625000
vt 0.968750 0.562500
vt 1.000000 0.500000
vt 0.968750 0.500000
vt 1.000000 0.437500
vt 0.968750 0.437500
vt 1.000000 0.376144
vt 0.968750 0.375000
vt 0.997852 0.375000
vt 0.968750 0.359133
vt 0.937500 0.562500
vt 0.937500 0.500000
vt 0.937500 0.437500
vt 0.937500 0.375000
vt 0.937500 0.345073
vt 0.906250 0.562500
vt 0.906250 0.500000
vt 0.906250 0.437500
vt 0.906250 0.375000
vt 0.906250 0.334181
vt 0.875000 0.500000
vt 0.875000 0.437500
vt 0.875000 0.375000
vt 0.875000 0.326545
vt 0.843750 0.437500
vt 0.843750 0.375000
vt 0.843750 0.322209
vt 0.812500 0.437500
vt 0.812500 0.375000
vt 0.812500 0.321195
vt 0.781250 0.375000
vt 0.781250 0.323504
vt 0.750000 0.375000
vt 0.750000 0.329129
vt 0.062500 0.677282
vt 0.093750 0.654245
vt 0.187500 0.552642
vt 0.941253 0.625000
vt 0.937500 0.622364
vt 0.906250 0.603733
vt 0.968750 0.646695
vt 0.027289 0.696026
vt 0.018205 0.687500
vt 0.000000 0.672443
vt 1.000000 0.672443
vt 0.747582 0.329818
vt 0.262056 0.496930
vt 0.740532 0.375000
vt 0.750000 0.391941
vt 0.738559 0.389080
vt 0.811991 0.437500
vt 0.781250 0.409747
vt 0.812500 0.438029
vt 0.855148 0.500000
vt 0.843750 0.480948
vt 0.904212 0.602781
vt 0.886852 0.562500
vt 0.875000 0.537693
vn -0.0976 0.0975 0.9904
vn -0.2889 -0.0976 0.9524
vn -0.4513 0.2890 0.8443
vn -0.4691 -0.0976 0.8777
vn -0.6314 0.0976 0.7693
vn -0.6314 -0.0976 0.7693
vn -0.7400 -0.2890 0.6073
vn -0.7400 0.2890 0.6073
vn -0.7693 0.0976 0.6314
vn -0.7693 -0.0976 0.6314
vn -0.8443 0.2890 0.4513
vn -0.8777 0.0976 0.4691
vn -0.8777 -0.0976 0.4691
vn -0.8443 -0.2890 0.4513
vn -0.7412 0.6326 0.2248
vn -0.9161 0.2890 0.2779
vn -0.9524 0.0976 0.2889
vn -0.9524 -0.0976 0.2889
vn -0.9161 -0.2890 0.2779
vn -0.9904 0.0976 0.0975
vn -0.9904 -0.0976 0.0975
vn -0.9527 -0.2890 0.0938
vn -0.9527 0.2890 0.0938
vn -0.9527 0.2890 -0.0938
vn -0.9904 0.0976 -0.0976
vn -0.9904 -0.0976 -0.0976
vn -0.9527 -0.2890 -0.0938
vn -0.8786 -0.4696 -0.0865
vn -0.9524 0.0976 -0.2889
vn -0.9524 -0.0976 -0.2889
vn -0.9161 -0.2890 -0.2779
vn -0.8448 -0.4696 -0.2563
vn -0.8777 0.0976 -0.4691
vn -0.8777 -0.0976 -0.4691
vn -0.8443 -0.2890 -0.4513
vn -0.7786 -0.4696 -0.4162
vn -0.7693 -0.0976 -0.6314
vn -0.7400 -0.2890 -0.6073
vn -0.6825 -0.4696 -0.5601
vn -0.6073 -0.2890 -0.7400
vn -0.5601 -0.4696 -0.6825
vn -0.4513 -0.2890 -0.8443
vn -0.4162 -0.4696 -0.7786
vn -0.2563 -0.4696 -0.8448
vn -0.0865 -0.4696 -0.8786
vn -0.8448 0.4696 0.2563
vn -0.7786 0.4696 0.4162
vn -0.6825 0.4696 0.5601
vn -0.6073 0.2890 0.7400
vn -0.2889 0.0976 0.9524
vn -0.4691 0.0976 0.8777
vn -0.9161 0.2890 -0.2779
vn -0.8443 0.2890 -0.4513
vn -0.8448 0.4696 -0.2563
vn -0.7708 0.6326 0.0759
vn -0.8786 0.4696 0.0865
vn -0.8786 0.4696 -0.0865
vn 0.1320 -0.9488 0.2870
vn 0.0865 -0.4696 -0.8786
vn 0.0938 -0.2890 -0.9527
vn -0.2779 -0.2890 -0.9161
vn -0.0938 -0.2890 -0.9527
vn -0.2889 -0.0975 -0.9524
vn -0.6314 -0.0976 -0.7693
vn -0.4691 -0.0976 -0.8777
vn -0.7400 0.2890 -0.6073
vn -0.7693 0.0976 -0.6314
vn -0.6314 0.0976 -0.7693
usemtl None
s off
f 73/1/1 72/2/1 46/3/1
f 47/4/2 48/5/2 1/6/2
f 67/7/3 66/8/3 2/9/3
f 47/4/4 1/6/4 3/10/4 49/11/4
f 3/10/5 2/9/5 5/12/5 6/13/5
f 49/11/6 3/10/6 6/13/6 50/14/6
f 51/15/7 52/16/7 10/17/7
f 5/12/8 4/18/8 7/19/8 8/20/8
f 6/13/9 5/12/9 8/20/9 9/21/9
f 50/14/10 6/13/10 9/21/10 10/17/10 52/16/10
f 8/20/11 7/19/11 11/22/11 12/23/11
f 9/21/12 8/20/12 12/23/12 13/24/12
f 10/17/13 9/21/13 13/24/13 14/25/13
f 51/15/14 10/17/14 14/25/14 53/26/14
f 71/27/15 70/28/15 15/29/15
f 12/23/16 11/22/16 16/30/16 17/31/16
f 13/24/17 12/23/17 17/31/17 18/32/17
f 14/25/18 13/24/18 18/32/18 19/33/18
f 53/26/19 14/25/19 19/33/19 54/34/19
f 18/32/20 17/31/20 21/35/20 22/36/20
f 19/33/21 18/32/21 22/36/21 23/37/21
f 54/34/22 19/33/22 23/37/22 55/38/22
f 17/31/23 16/30/23 20/39/23 21/35/23
f 21/40/24 20/41/24 24/42/24 25/43/24
f 22/44/25 21/40/25 25/43/25 26/45/25
f 23/46/26 22/44/26 26/45/26 27/47/26
f 55/48/27 23/46/27 27/47/27 28/49/27 57/50/27
f 56/51/28 57/50/28 28/49/28
f 26/45/29 25/43/29 29/52/29 30/53/29
f 27/47/30 26/45/30 30/53/30 31/54/30
f 28/49/31 27/47/31 31/54/31 32/55/31
f 56/51/32 28/49/32 32/55/32 58/56/32
f 30/53/33 29/52/33 33/57/33 34/58/33
f 31/54/34 30/53/34 34/58/34 35/59/34
f 32/55/35 31/54/35 35/59/35 36/60/35
f 58/56/36 32/55/36 36/60/36 59/61/36
f 35/59/37 34/58/37 37/62/37 38/63/37
f 36/60/38 35/59/38 38/63/38 39/64/38
f 59/61/39 36/60/39 39/64/39 60/65/39
f 39/64/40 38/63/40 40/66/40 41/67/40
f 60/65/41 39/64/41 41/67/41 61/68/41
f 41/67/42 40/66/42 42/69/42 43/70/42
f 61/68/43 41/67/43 43/70/43 62/71/43
f 62/71/44 43/70/44 44/72/44 63/73/44
f 63/73/45 44/72/45 45/74/45 64/75/45
f 11/22/46 69/76/46 71/27/46 15/29/46 16/30/46
f 7/19/47 68/77/47 69/76/47 11/22/47
f 7/19/48 4/18/48 68/77/48
f 2/9/49 66/8/49 4/18/49 5/12/49
f 46/3/50 72/2/50 65/78/50 1/6/50 48/5/50
f 1/6/51 65/78/51 67/7/51 2/9/51 3/10/51
f 25/43/52 24/42/52 78/79/52 77/80/52 29/52/52
f 29/52/53 77/80/53 79/81/53 33/57/53
f 24/42/54 76/82/54 78/79/54
f 15/29/55 70/28/55 80/83/55 75/84/55
f 16/30/56 15/29/56 75/84/56 74/85/56 20/39/56
f 20/41/57 74/86/57 76/82/57 24/42/57
f 61/68/58 62/71/58 63/73/58 64/75/58 82/87/58 83/88/58 73/1/58 46/3/58 48/5/58 47/4/58 49/11/58 50/14/58 52/16/58 51/15/58 53/26/58 54/34/58 55/48/58 57/50/58 56/51/58 58/56/58 59/61/58 60/65/58
f 64/75/59 45/74/59 81/89/59 82/87/59
f 45/74/60 91/90/60 93/91/60 81/89/60
f 43/70/61 42/69/61 90/92/61 89/93/61 44/72/61
f 44/72/62 89/93/62 91/90/62 45/74/62
f 42/69/63 88/94/63 90/92/63
f 38/63/64 37/62/64 87/95/64 86/96/64 40/66/64
f 40/66/65 86/96/65 88/94/65 42/69/65
f 33/57/66 79/81/66 92/97/66 85/98/66
f 34/58/67 33/57/67 85/98/67 84/99/67 37/62/67
f 37/62/68 84/99/68 87/95/68
