# Blender v2.90.0 OBJ File: ''
# www.blender.org
mtllib untitled3.mtl
o Sphere.004
v 0.180240 -0.382683 -0.906127
v 0.353554 -0.382683 -0.853553
v 0.513280 -0.382683 -0.768178
v 0.169579 -0.484920 -0.852531
v 0.339510 -0.451339 -0.819649
v 0.505424 -0.409137 -0.756421
v 0.658527 -0.358231 -0.658526
v 0.587938 -0.382683 -0.706907
v 0.788944 -0.300352 -0.527155
v 0.802173 -0.247902 -0.535994
v 0.828110 -0.277220 -0.468694
v 0.054606 -0.382683 -0.918501
v 0.013121 -0.507664 -0.855783
v -0.058765 -0.009229 0.824975
v 0.181879 -0.354994 -0.914366
v 0.357544 -0.348311 -0.863186
v 0.525250 -0.311659 -0.786092
v 0.682956 -0.244341 -0.682956
v 0.749811 -0.198649 -0.623235
v 0.067447 -0.340424 -0.930056
vt 0.747582 0.329818
vt 0.740532 0.375000
vt 0.718750 0.375000
vt 0.718750 0.338041
vt 0.687500 0.375000
vt 0.687500 0.350180
vt 0.656250 0.375000
vt 0.656250 0.365437
vt 0.639585 0.375000
vt 0.262056 0.496930
vt 0.625000 0.383147
vt 0.593750 0.402430
vt 0.582102 0.410137
vt 0.593750 0.419905
vt 0.625000 0.421091
vt 0.610348 0.436314
vt 0.656250 0.398663
vt 0.687500 0.386452
vt 0.738559 0.389080
vt 0.718750 0.384225
vn 0.0865 -0.4696 -0.8786
vn 0.2563 -0.4696 -0.8448
vn 0.4162 -0.4696 -0.7786
vn 0.5601 -0.4696 -0.6825
vn 0.1320 -0.9488 0.2870
vn 0.8443 -0.2890 -0.4513
vn 0.7400 -0.2890 -0.6073
vn 0.6073 -0.2890 -0.7400
vn 0.4513 -0.2890 -0.8443
vn 0.0938 -0.2890 -0.9527
vn 0.2779 -0.2890 -0.9161
usemtl None
s off
f 13/1/1 12/2/1 1/3/1 4/4/1
f 4/4/2 1/3/2 2/5/2 5/6/2
f 5/6/3 2/5/3 3/7/3 6/8/3
f 6/8/4 3/7/4 8/9/4
f 14/10/5 13/1/5 4/4/5 5/6/5 6/8/5 8/9/5 7/11/5 9/12/5 11/13/5
f 9/12/6 10/14/6 11/13/6
f 7/11/7 18/15/7 19/16/7 10/14/7 9/12/7
f 3/7/8 17/17/8 18/15/8 7/11/8 8/9/8
f 2/5/9 16/18/9 17/17/9 3/7/9
f 12/2/10 20/19/10 15/20/10 1/3/10
f 1/3/11 15/20/11 16/18/11 2/5/11
