# Blender v2.90.0 OBJ File: ''
# www.blender.org
mtllib untitled1.mtl
o Sphere.002
v -0.195090 0.000000 0.980786
v -0.191342 -0.195090 0.961940
v -0.180240 -0.382683 0.906128
v -0.375330 -0.195090 0.906127
v -0.353553 -0.382683 0.853554
v -0.318190 -0.555570 0.768178
v -0.270598 -0.707107 0.653282
v -0.544895 -0.195090 0.815493
v -0.513280 -0.382683 0.768178
v -0.461940 -0.555570 0.691342
v -0.392847 -0.707107 0.587938
v -0.308658 -0.831470 0.461940
v -0.693520 -0.195090 0.693520
v -0.653281 -0.382683 0.653282
v -0.587938 -0.555570 0.587938
v -0.500000 -0.707107 0.500000
v -0.392847 -0.831470 0.392848
v -0.270598 -0.923880 0.270598
v -0.768178 -0.382683 0.513280
v -0.691342 -0.555570 0.461940
v -0.587938 -0.707107 0.392848
v -0.461940 -0.831470 0.308658
v -0.318190 -0.923880 0.212608
v -0.853553 -0.382683 0.353554
v -0.768177 -0.555570 0.318190
v -0.653281 -0.707107 0.270598
v -0.513280 -0.831470 0.212608
v -0.353553 -0.923880 0.146447
v -0.906127 -0.382683 0.180240
v -0.815493 -0.555570 0.162212
v -0.693520 -0.707107 0.137950
v -0.544895 -0.831470 0.108387
v -0.375330 -0.923880 0.074658
v -0.923879 -0.382683 0.000000
v -0.831469 -0.555570 0.000000
v -0.707107 -0.707107 0.000000
v -0.555570 -0.831470 0.000000
v -0.382683 -0.923880 0.000000
v -0.815493 -0.555570 -0.162211
v -0.693520 -0.707107 -0.137949
v -0.544895 -0.831470 -0.108386
v -0.375330 -0.923880 -0.074658
v -0.768177 -0.555570 -0.318189
v -0.653281 -0.707107 -0.270598
v -0.513280 -0.831470 -0.212607
v -0.353553 -0.923880 -0.146446
v -0.691341 -0.555570 -0.461939
v -0.587938 -0.707107 -0.392847
v -0.461940 -0.831470 -0.308658
v -0.318189 -0.923880 -0.212607
v -0.587937 -0.555570 -0.587937
v -0.500000 -0.707107 -0.500000
v -0.392847 -0.831470 -0.392847
v -0.270598 -0.923880 -0.270598
v -0.461939 -0.555570 -0.691341
v -0.392847 -0.707107 -0.587937
v -0.308658 -0.831470 -0.461939
v -0.212607 -0.923880 -0.318189
v -0.318189 -0.555570 -0.768177
v -0.270598 -0.707107 -0.653281
v -0.212607 -0.831470 -0.513279
v -0.162211 -0.555570 -0.815492
v -0.137950 -0.707107 -0.693520
v -0.194736 0.018454 0.979003
v -0.381744 -0.024915 0.921613
v -0.277156 0.000000 0.955891
v -0.551319 -0.077693 0.825107
v -0.697593 -0.136610 0.697593
v -0.814440 -0.199265 0.544191
v -0.807400 -0.195090 0.554757
v -0.887141 -0.262837 0.367466
v -0.923735 -0.323503 0.183742
v -0.924921 -0.379250 0.000000
v -0.883118 -0.426575 -0.175663
v -0.922659 -0.382683 -0.012388
v -0.812672 -0.465467 -0.336620
v -0.717995 -0.495596 -0.479749
v -0.602621 -0.516719 -0.602621
v -0.469915 -0.528712 -0.703278
v -0.323109 -0.531519 -0.780054
v -0.165386 -0.525130 -0.831450
v 0.000000 -0.509571 -0.856056
v -0.129383 0.000000 0.987257
v -0.165982 0.023170 0.981371
v -0.176685 -0.416776 0.888255
v -0.126614 -0.195090 0.968315
v -0.169794 -0.382683 0.907157
v -0.236040 -0.781217 0.569852
v -0.227860 -0.707107 0.666246
v -0.203704 -0.555570 0.802907
v -0.241468 -0.896113 0.361382
v -0.240815 -0.831470 0.498203
v -0.237583 -0.938043 0.237583
v -0.240817 -0.923880 0.295039
v -0.232103 -0.955287 0.155086
v -0.227327 -0.965325 0.094162
v -0.222752 -0.971070 0.044308
v -0.218049 -0.973821 0.000000
v -0.212922 -0.974111 -0.042352
v -0.207016 -0.971994 -0.085748
v -0.199813 -0.967067 -0.133511
v -0.190438 -0.958268 -0.190438
v -0.177185 -0.943220 -0.265176
v -0.155196 -0.911659 -0.374676
v -0.162125 -0.923880 -0.345172
v -0.109917 -0.825032 -0.552589
v -0.112766 -0.831470 -0.543566
v 0.000000 -0.547191 -0.835948
v -0.002849 -0.555570 -0.831188
v -0.059778 -0.707107 -0.701219
v 0.013121 -0.507664 -0.855783
v -0.083907 -0.027654 0.989013
vt 0.220561 0.375000
vt 0.229321 0.437500
vt 0.218750 0.437500
vt 0.218750 0.375000
vt 0.218750 0.362675
vt 0.187500 0.212755
vt 0.197568 0.250000
vt 0.187500 0.250000
vt 0.187500 0.437500
vt 0.187500 0.375000
vt 0.187500 0.312500
vt 0.210437 0.312500
vt 0.156250 0.437500
vt 0.156250 0.375000
vt 0.156250 0.312500
vt 0.156250 0.250000
vt 0.156250 0.187500
vt 0.178323 0.187500
vt 0.156250 0.143779
vt 0.125000 0.187500
vt 0.125000 0.125000
vt 0.141048 0.125000
vt 0.125000 0.109444
vt 0.125000 0.437500
vt 0.125000 0.375000
vt 0.125000 0.312500
vt 0.125000 0.250000
vt 0.093750 0.375000
vt 0.093750 0.312500
vt 0.093750 0.250000
vt 0.093750 0.187500
vt 0.093750 0.125000
vt 0.093750 0.090505
vt 0.062500 0.187500
vt 0.062500 0.125000
vt 0.062500 0.079480
vt 0.062500 0.375000
vt 0.062500 0.312500
vt 0.062500 0.250000
vt 0.031250 0.375000
vt 0.031250 0.312500
vt 0.031250 0.250000
vt 0.031250 0.187500
vt 0.031250 0.125000
vt 0.031250 0.073170
vt 0.000000 0.125000
vt 0.000000 0.070149
vt 0.000000 0.375000
vt 0.000000 0.312500
vt 0.000000 0.250000
vt 0.000000 0.187500
vt 1.000000 0.250000
vt 1.000000 0.312500
vt 0.968750 0.312500
vt 0.968750 0.250000
vt 1.000000 0.187500
vt 0.968750 0.187500
vt 1.000000 0.125000
vt 0.968750 0.125000
vt 1.000000 0.070149
vt 0.968750 0.069831
vt 0.937500 0.312500
vt 0.937500 0.250000
vt 0.937500 0.187500
vt 0.937500 0.125000
vt 0.937500 0.072156
vt 0.906250 0.312500
vt 0.906250 0.250000
vt 0.906250 0.187500
vt 0.906250 0.125000
vt 0.906250 0.077567
vt 0.875000 0.312500
vt 0.875000 0.250000
vt 0.875000 0.187500
vt 0.875000 0.125000
vt 0.875000 0.087231
vt 0.843750 0.250000
vt 0.843750 0.187500
vt 0.843750 0.125000
vt 0.843750 0.103758
vt 0.843750 0.312500
vt 0.812500 0.312500
vt 0.812500 0.250000
vt 0.812500 0.187500
vt 0.819906 0.125000
vt 0.812500 0.133265
vt 0.782563 0.187500
vt 0.781250 0.312500
vt 0.781250 0.250000
vt 0.781250 0.190735
vt 0.763542 0.250000
vt 0.812500 0.321195
vt 0.781250 0.323504
vt 0.843750 0.322209
vt 0.875000 0.326545
vt 0.906250 0.334181
vt 0.937500 0.345073
vt 1.000000 0.375000
vt 0.997852 0.375000
vt 0.968750 0.359133
vt 1.000000 0.376144
vt 0.031250 0.394717
vt 0.000000 0.376144
vt 0.062500 0.414929
vt 0.095824 0.437500
vt 0.093750 0.436109
vt 0.125000 0.456235
vt 0.156250 0.475110
vt 0.218750 0.500000
vt 0.205079 0.500000
vt 0.187500 0.492018
vt 0.218750 0.505912
vt 0.229275 0.500000
vt 0.223364 0.507423
vt 0.750000 0.315529
vt 0.750000 0.329129
vt 0.747582 0.329818
vt 0.236560 0.491141
vt 0.750549 0.312500
vn -0.0938 -0.2890 0.9527
vn -0.0865 -0.4696 0.8786
vn -0.1847 -0.7715 0.6088
vn -0.2779 -0.2890 0.9161
vn -0.2563 -0.4696 0.8448
vn -0.2248 -0.6326 0.7412
vn -0.4513 -0.2890 0.8443
vn -0.4162 -0.4696 0.7786
vn -0.3651 -0.6326 0.6831
vn -0.2999 -0.7715 0.5611
vn -0.2230 -0.8810 0.4173
vn -0.3002 -0.8810 0.3658
vn -0.1850 -0.9566 0.2254
vn -0.6073 -0.2890 0.7400
vn -0.5601 -0.4696 0.6825
vn -0.4913 -0.6326 0.5987
vn -0.4036 -0.7715 0.4918
vn -0.6825 -0.4696 0.5601
vn -0.5987 -0.6326 0.4913
vn -0.4918 -0.7715 0.4036
vn -0.3658 -0.8810 0.3002
vn -0.2254 -0.9565 0.1850
vn -0.4173 -0.8810 0.2231
vn -0.2571 -0.9565 0.1374
vn -0.7786 -0.4696 0.4162
vn -0.6831 -0.6326 0.3651
vn -0.5611 -0.7715 0.2999
vn -0.8448 -0.4696 0.2563
vn -0.7412 -0.6326 0.2248
vn -0.6088 -0.7715 0.1847
vn -0.4528 -0.8810 0.1374
vn -0.2790 -0.9565 0.0846
vn -0.2902 -0.9565 0.0286
vn -0.8786 -0.4696 0.0865
vn -0.7708 -0.6326 0.0759
vn -0.6332 -0.7715 0.0624
vn -0.4709 -0.8810 0.0464
vn -0.7708 -0.6326 -0.0759
vn -0.6332 -0.7715 -0.0624
vn -0.4709 -0.8810 -0.0464
vn -0.2902 -0.9565 -0.0286
vn -0.7412 -0.6326 -0.2248
vn -0.6088 -0.7715 -0.1847
vn -0.4528 -0.8810 -0.1374
vn -0.2790 -0.9565 -0.0846
vn -0.6831 -0.6326 -0.3651
vn -0.5611 -0.7715 -0.2999
vn -0.4173 -0.8810 -0.2231
vn -0.2571 -0.9565 -0.1374
vn -0.5987 -0.6326 -0.4913
vn -0.4918 -0.7715 -0.4036
vn -0.3658 -0.8810 -0.3002
vn -0.2254 -0.9565 -0.1850
vn -0.4036 -0.7715 -0.4918
vn -0.3002 -0.8810 -0.3658
vn -0.1850 -0.9565 -0.2254
vn -0.4913 -0.6326 -0.5987
vn -0.3651 -0.6326 -0.6831
vn -0.2999 -0.7715 -0.5611
vn -0.1374 -0.9565 -0.2571
vn -0.1374 -0.8810 -0.4528
vn -0.2248 -0.6326 -0.7412
vn -0.0624 -0.7715 -0.6332
vn -0.2563 -0.4696 -0.8448
vn -0.4162 -0.4696 -0.7786
vn -0.5601 -0.4696 -0.6825
vn -0.6825 -0.4696 -0.5601
vn -0.7786 -0.4696 -0.4162
vn -0.8786 -0.4696 -0.0865
vn -0.8448 -0.4696 -0.2563
vn -0.9527 -0.2890 -0.0938
vn -0.9527 -0.2890 0.0938
vn -0.9161 -0.2890 0.2779
vn -0.7400 -0.2890 0.6073
vn -0.8443 -0.2890 0.4513
vn -0.7693 -0.0976 0.6314
vn -0.6314 -0.0976 0.7693
vn -0.2889 -0.0976 0.9524
vn -0.4691 -0.0976 0.8777
vn -0.2889 0.0976 0.9524
vn -0.0975 0.0976 0.9904
vn 0.0865 -0.4696 -0.8786
vn -0.0976 -0.0976 0.9904
vn -0.0759 -0.6326 -0.7708
vn -0.0865 -0.4696 -0.8786
vn -0.1847 -0.7715 -0.6088
vn -0.2230 -0.8810 -0.4173
usemtl None
s off
f 87/1/1 86/2/1 2/3/1 3/4/1
f 85/5/2 87/1/2 3/4/2
f 88/6/3 89/7/3 7/8/3
f 3/4/4 2/3/4 4/9/4 5/10/4
f 85/5/5 3/4/5 5/10/5 6/11/5 90/12/5
f 89/7/6 90/12/6 6/11/6 7/8/6
f 5/10/7 4/9/7 8/13/7 9/14/7
f 6/11/8 5/10/8 9/14/8 10/15/8
f 7/8/9 6/11/9 10/15/9 11/16/9
f 88/6/10 7/8/10 11/16/10 12/17/10 92/18/10
f 91/19/11 92/18/11 12/17/11
f 91/19/12 12/17/12 17/20/12 18/21/12 94/22/12
f 93/23/13 94/22/13 18/21/13
f 9/14/14 8/13/14 13/24/14 14/25/14
f 10/15/15 9/14/15 14/25/15 15/26/15
f 11/16/16 10/15/16 15/26/16 16/27/16
f 12/17/17 11/16/17 16/27/17 17/20/17
f 15/26/18 14/25/18 19/28/18 20/29/18
f 16/27/19 15/26/19 20/29/19 21/30/19
f 17/20/20 16/27/20 21/30/20 22/31/20
f 18/21/21 17/20/21 22/31/21 23/32/21
f 93/23/22 18/21/22 23/32/22 95/33/22
f 23/32/23 22/31/23 27/34/23 28/35/23
f 95/33/24 23/32/24 28/35/24 96/36/24
f 20/29/25 19/28/25 24/37/25 25/38/25
f 21/30/26 20/29/26 25/38/26 26/39/26
f 22/31/27 21/30/27 26/39/27 27/34/27
f 25/38/28 24/37/28 29/40/28 30/41/28
f 26/39/29 25/38/29 30/41/29 31/42/29
f 27/34/30 26/39/30 31/42/30 32/43/30
f 28/35/31 27/34/31 32/43/31 33/44/31
f 96/36/32 28/35/32 33/44/32 97/45/32
f 97/45/33 33/44/33 38/46/33 98/47/33
f 30/41/34 29/40/34 34/48/34 35/49/34
f 31/42/35 30/41/35 35/49/35 36/50/35
f 32/43/36 31/42/36 36/50/36 37/51/36
f 33/44/37 32/43/37 37/51/37 38/46/37
f 36/52/38 35/53/38 39/54/38 40/55/38
f 37/56/39 36/52/39 40/55/39 41/57/39
f 38/58/40 37/56/40 41/57/40 42/59/40
f 98/60/41 38/58/41 42/59/41 99/61/41
f 40/55/42 39/54/42 43/62/42 44/63/42
f 41/57/43 40/55/43 44/63/43 45/64/43
f 42/59/44 41/57/44 45/64/44 46/65/44
f 99/61/45 42/59/45 46/65/45 100/66/45
f 44/63/46 43/62/46 47/67/46 48/68/46
f 45/64/47 44/63/47 48/68/47 49/69/47
f 46/65/48 45/64/48 49/69/48 50/70/48
f 100/66/49 46/65/49 50/70/49 101/71/49
f 48/68/50 47/67/50 51/72/50 52/73/50
f 49/69/51 48/68/51 52/73/51 53/74/51
f 50/70/52 49/69/52 53/74/52 54/75/52
f 101/71/53 50/70/53 54/75/53 102/76/53
f 53/74/54 52/73/54 56/77/54 57/78/54
f 54/75/55 53/74/55 57/78/55 58/79/55
f 102/76/56 54/75/56 58/79/56 103/80/56
f 52/73/57 51/72/57 55/81/57 56/77/57
f 56/77/58 55/81/58 59/82/58 60/83/58
f 57/78/59 56/77/59 60/83/59 61/84/59
f 103/80/60 58/79/60 105/85/60
f 104/86/61 61/84/61 107/87/61
f 60/83/62 59/82/62 62/88/62 63/89/62
f 106/90/63 63/89/63 110/91/63
f 59/82/64 80/92/64 81/93/64 62/88/64
f 55/81/65 79/94/65 80/92/65 59/82/65
f 51/72/66 78/95/66 79/94/66 55/81/66
f 47/67/67 77/96/67 78/95/67 51/72/67
f 43/62/68 76/97/68 77/96/68 47/67/68
f 35/53/69 34/98/69 75/99/69 74/100/69 39/54/69
f 39/54/70 74/100/70 76/97/70 43/62/70
f 34/98/71 73/101/71 75/99/71
f 29/40/72 72/102/72 73/103/72 34/48/72
f 24/37/73 71/104/73 72/102/73 29/40/73
f 14/25/74 13/24/74 70/105/74 69/106/74 19/28/74
f 19/28/75 69/106/75 71/104/75 24/37/75
f 13/24/76 68/107/76 70/105/76
f 8/13/77 67/108/77 68/107/77 13/24/77
f 2/3/78 1/109/78 66/110/78 65/111/78 4/9/78
f 4/9/79 65/111/79 67/108/79 8/13/79
f 1/109/80 64/112/80 66/110/80
f 83/113/81 84/114/81 64/112/81 1/109/81
f 108/115/82 82/116/82 111/117/82
f 86/2/83 112/118/83 83/113/83 1/109/83 2/3/83
f 63/89/84 62/88/84 109/119/84 110/91/84
f 62/88/85 81/93/85 82/116/85 108/115/85 109/119/85
f 61/84/86 60/83/86 63/89/86 106/90/86 107/87/86
f 58/79/87 57/78/87 61/84/87 104/86/87 105/85/87
