# Blender v2.90.0 OBJ File: ''
# www.blender.org
mtllib untitled11.mtl
o Sphere.012
v 0.108386 0.831470 0.544896
v 0.137950 0.707107 0.693520
v 0.000000 0.831470 0.555571
v -0.000000 0.707107 0.707107
v -0.000000 0.555570 0.831470
v 0.000000 0.382683 0.923880
v -0.108386 0.831470 0.544896
v -0.137950 0.707107 0.693520
v -0.162212 0.555570 0.815493
v -0.180240 0.382683 0.906128
v -0.191342 0.195090 0.961940
v -0.270598 0.707107 0.653282
v -0.318190 0.555570 0.768178
v -0.353553 0.382683 0.853554
v -0.375330 0.195090 0.906127
v -0.392847 0.707107 0.587938
v -0.461940 0.555570 0.691342
v -0.513280 0.382683 0.768178
v -0.500000 0.707107 0.500000
v -0.587938 0.555570 0.587938
v -0.653281 0.382683 0.653282
v -0.691342 0.555570 0.461940
v -0.768177 0.555570 0.318190
v -0.376490 0.164320 0.908927
v -0.530541 0.280262 0.794011
v -0.418880 0.195090 0.882850
v -0.732225 0.463580 0.489257
v -0.782135 0.527307 0.323971
v -0.801725 0.572675 0.159473
v -0.796016 0.555570 0.226417
v -0.194301 0.041098 0.976816
v -0.165982 0.023170 0.981371
v 0.196501 0.853966 0.474396
v 0.100731 0.852443 0.506411
v 0.000000 0.846149 0.528107
v -0.107216 0.834676 0.539012
v -0.220201 0.815186 0.531612
v -0.128483 0.831470 0.538799
v -0.338172 0.787873 0.506110
v -0.461146 0.752201 0.461146
v -0.588113 0.706850 0.392965
v -0.587494 0.707107 0.393389
v -0.696569 0.650015 0.288528
v -0.792055 0.584688 0.157550
v -0.800788 0.576242 0.139261
v 0.209109 0.836356 0.504834
v 0.141893 0.682477 0.713345
v 0.206523 0.831470 0.515126
v 0.151491 0.707107 0.689412
v -0.000000 0.268895 0.958397
v 0.094217 0.555570 0.822190
v 0.035423 0.382683 0.920391
v -0.022427 0.195090 0.978577
v -0.065807 0.039597 0.989619
v -0.058765 -0.009229 0.824975
v 0.218664 0.853208 0.464151
v -0.433438 0.449831 -0.321182
v 0.139317 0.135932 -0.467392
vt 0.284440 0.750000
vt 0.310676 0.812500
vt 0.281250 0.812500
vt 0.281250 0.750000
vt 0.281250 0.739842
vt 0.250000 0.750000
vt 0.250000 0.687500
vt 0.268151 0.687500
vt 0.256142 0.625000
vt 0.250000 0.625000
vt 0.250000 0.587089
vt 0.250000 0.812500
vt 0.218750 0.812500
vt 0.218750 0.750000
vt 0.218750 0.687500
vt 0.218750 0.625000
vt 0.218750 0.562500
vt 0.246337 0.562500
vt 0.187500 0.687500
vt 0.187500 0.625000
vt 0.187500 0.562500
vt 0.218750 0.513166
vt 0.187500 0.552642
vt 0.187500 0.750000
vt 0.156250 0.750000
vt 0.156250 0.687500
vt 0.156250 0.625000
vt 0.179474 0.562500
vt 0.125000 0.687500
vt 0.125000 0.625000
vt 0.156250 0.590876
vt 0.125000 0.750000
vt 0.093750 0.687500
vt 0.093750 0.654245
vt 0.062500 0.687500
vt 0.062500 0.677282
vt 0.044114 0.687500
vt 0.239440 0.512686
vt 0.223364 0.507423
vt 0.590766 0.543517
vt 0.262056 0.496930
vt 0.031250 0.694555
vt 0.154036 0.696026
vt 0.401469 0.651144
vt 0.031250 0.699510
vt 0.027289 0.696026
vt 0.062500 0.726453
vt 0.093908 0.750000
vt 0.093750 0.749894
vt 0.125000 0.772663
vt 0.156250 0.790590
vt 0.212724 0.812500
vt 0.187500 0.804316
vt 0.218750 0.814668
vt 0.250000 0.822428
vt 0.281250 0.826685
vt 0.312500 0.815805
vt 0.312500 0.827715
vt 0.320024 0.827202
vn 0.1847 0.7715 0.6088
vn 0.2248 0.6326 0.7412
vn 0.0759 0.6326 0.7708
vn 0.0865 0.4696 0.8786
vn 0.0938 0.2890 0.9527
vn 0.0624 0.7715 0.6332
vn -0.0624 0.7715 0.6332
vn -0.0759 0.6326 0.7708
vn -0.0865 0.4696 0.8786
vn -0.0938 0.2890 0.9527
vn -0.2563 0.4696 0.8448
vn -0.2779 0.2890 0.9161
vn -0.2889 0.0976 0.9524
vn -0.2248 0.6326 0.7412
vn -0.3651 0.6326 0.6831
vn -0.4162 0.4696 0.7786
vn -0.4691 0.0976 0.8777
vn -0.5601 0.4696 0.6825
vn -0.6073 0.2890 0.7400
vn -0.4913 0.6326 0.5987
vn -0.6825 0.4696 0.5601
vn -0.7786 0.4696 0.4162
vn -0.8448 0.4696 0.2563
vn -0.0975 0.0976 0.9904
vn -0.4513 0.2890 0.8443
vn -0.5069 -0.8446 -0.1726
vn -0.7708 0.6326 0.0759
vn -0.7412 0.6326 0.2248
vn -0.5987 0.6326 0.4913
vn -0.6831 0.6326 0.3651
vn -0.4918 0.7715 0.4036
vn -0.4036 0.7715 0.4918
vn -0.1847 0.7715 0.6088
vn -0.2999 0.7715 0.5611
vn -0.1374 0.8810 0.4528
vn -0.0464 0.8810 0.4709
vn 0.0464 0.8810 0.4709
vn 0.1374 0.8810 0.4528
vn 0.2230 0.8810 0.4173
vn 0.1320 -0.9488 0.2870
usemtl None
s off
f 49/1/1 48/2/1 1/3/1 2/4/1
f 47/5/2 49/1/2 2/4/2
f 47/5/3 2/4/3 4/6/3 5/7/3 51/8/3
f 52/9/4 51/8/4 5/7/4 6/10/4
f 50/11/5 52/9/5 6/10/5
f 2/4/6 1/3/6 3/12/6 4/6/6
f 4/6/7 3/12/7 7/13/7 8/14/7
f 5/7/8 4/6/8 8/14/8 9/15/8
f 6/10/9 5/7/9 9/15/9 10/16/9
f 50/11/10 6/10/10 10/16/10 11/17/10 53/18/10
f 10/16/11 9/15/11 13/19/11 14/20/11
f 11/17/12 10/16/12 14/20/12 15/21/12
f 31/22/13 11/17/13 15/21/13 24/23/13
f 9/15/14 8/14/14 12/24/14 13/19/14
f 13/19/15 12/24/15 16/25/15 17/26/15
f 14/20/16 13/19/16 17/26/16 18/27/16
f 24/23/17 15/21/17 26/28/17
f 18/27/18 17/26/18 20/29/18 21/30/18
f 25/31/19 18/27/19 21/30/19
f 17/26/20 16/25/20 19/32/20 20/29/20
f 21/30/21 20/29/21 22/33/21 27/34/21
f 27/34/22 22/33/22 23/35/22 28/36/22
f 28/36/23 23/35/23 30/37/23
f 54/38/24 53/18/24 11/17/24 31/22/24 32/39/24
f 15/21/25 14/20/25 18/27/25 25/31/25 26/28/25
f 58/40/26 55/41/26 32/39/26 31/22/26 24/23/26 26/28/26 25/31/26 21/30/26 27/34/26 28/36/26 30/37/26 29/42/26 45/43/26 57/44/26
f 29/42/27 44/45/27 45/46/27
f 23/35/28 43/47/28 44/45/28 29/42/28 30/37/28
f 20/29/29 19/32/29 42/48/29 41/49/29 22/33/29
f 22/33/30 41/49/30 43/47/30 23/35/30
f 19/32/31 40/50/31 42/48/31
f 16/25/32 39/51/32 40/50/32 19/32/32
f 8/14/33 7/13/33 38/52/33 37/53/33 12/24/33
f 12/24/34 37/53/34 39/51/34 16/25/34
f 7/13/35 36/54/35 38/52/35
f 3/12/36 35/55/36 36/54/36 7/13/36
f 1/3/37 34/56/37 35/55/37 3/12/37
f 46/57/38 33/58/38 34/56/38 1/3/38 48/2/38
f 46/57/39 56/59/39 33/58/39
f 32/39/40 55/41/40 54/38/40
