# Blender v2.90.0 OBJ File: ''
# www.blender.org
mtllib untitled4.mtl
o Sphere.005
v 0.461940 0.831470 0.308659
v 0.464407 0.829034 0.310307
v 0.377870 0.842791 0.377871
v 0.451520 0.831470 0.321356
v 0.288549 0.850816 0.431845
v 0.242453 0.895165 0.362857
v 0.218664 0.853208 0.464151
v 0.417659 0.859936 0.279071
v 0.483008 0.831470 0.269242
v 0.291633 0.907979 0.291633
v 0.507984 0.816315 0.261499
v 0.225370 0.706297 0.086579
v 0.257459 0.918990 0.293158
vt 0.419074 0.812500
vt 0.406250 0.831753
vt 0.406250 0.812500
vt 0.423964 0.804884
vt 0.406250 0.811276
vt 0.401537 0.812500
vt 0.426920 0.765743
vt 0.320024 0.827202
vt 0.343750 0.825585
vt 0.375000 0.820157
vt 0.343750 0.855579
vt 0.375000 0.864246
vt 0.365181 0.871693
vn 0.4173 0.8810 0.2231
vn 0.5611 0.7715 0.2999
vn 0.4918 0.7715 0.4036
vn -0.1355 0.9225 -0.3614
vn 0.2230 0.8810 0.4173
vn 0.3002 0.8810 0.3658
vn 0.3658 0.8810 0.3002
usemtl None
s off
f 9/1/1 8/2/1 1/3/1
f 11/4/2 9/1/2 1/3/2 2/5/2
f 2/5/3 1/3/3 4/6/3
f 12/7/4 7/8/4 5/9/4 3/10/4 4/6/4 2/5/4 11/4/4
f 5/9/5 6/11/5 7/8/5
f 3/10/6 10/12/6 13/13/6 6/11/6 5/9/6
f 1/3/7 8/2/7 10/12/7 3/10/7 4/6/7
