# Blender v2.90.0 OBJ File: ''
# www.blender.org
mtllib untitled9.mtl
o Sphere.010
v 0.212608 0.923880 0.318190
v 0.146447 0.923880 0.353554
v 0.074658 0.923880 0.375331
v 0.000000 0.923880 0.382684
v -0.074658 0.923880 0.375331
v -0.146447 0.923880 0.353554
v -0.212608 0.831470 0.513280
v -0.212608 0.923880 0.318190
v -0.308658 0.831470 0.461940
v -0.270598 0.923880 0.270598
v -0.392848 0.831470 0.392848
v -0.318190 0.923880 0.212608
v -0.461940 0.831470 0.308659
v -0.587938 0.707107 0.392848
v -0.353553 0.923880 0.146447
v -0.513280 0.831470 0.212608
v -0.653281 0.707107 0.270598
v -0.544895 0.831470 0.108387
v -0.693520 0.707107 0.137950
v -0.707107 0.707107 0.000000
v -0.693520 0.707107 -0.137949
v -0.794333 0.600821 0.000000
v -0.767122 0.615665 -0.152590
v 0.196501 0.853966 0.474396
v 0.100731 0.852443 0.506411
v 0.000000 0.846149 0.528107
v -0.107216 0.834676 0.539012
v -0.220201 0.815186 0.531612
v -0.128483 0.831470 0.538799
v -0.338172 0.787873 0.506110
v -0.461146 0.752201 0.461146
v -0.588113 0.706850 0.392965
v -0.587494 0.707107 0.393389
v -0.696569 0.650015 0.288528
v -0.792055 0.584688 0.157550
v -0.800788 0.576242 0.139261
v 0.242453 0.895165 0.362857
v 0.218664 0.853208 0.464151
v 0.194352 0.933848 0.290868
v 0.117375 0.946924 0.283368
v 0.054666 0.954966 0.274823
v 0.000000 0.959546 0.265108
v -0.050511 0.961425 0.253936
v -0.099757 0.960889 0.240836
v -0.150378 0.957858 0.225056
v -0.205384 0.951856 0.205385
v -0.269010 0.941822 0.179747
v -0.348364 0.925583 0.144297
v -0.438826 0.889275 0.087288
v -0.355220 0.923880 0.140954
v -0.559002 0.828653 0.000000
v -0.555216 0.831470 0.003596
v -0.681781 0.716929 -0.135614
v -0.690753 0.707107 -0.147071
v -0.738461 0.616999 -0.243317
v -0.433438 0.449831 -0.321182
v 0.242284 0.923880 0.293835
v 0.225370 0.706297 0.086579
v 0.257459 0.918990 0.293158
vt 0.359742 0.875000
vt 0.343750 0.885948
vt 0.343750 0.875000
vt 0.343750 0.855579
vt 0.312500 0.875000
vt 0.312500 0.827715
vt 0.320024 0.827202
vt 0.281250 0.875000
vt 0.281250 0.826685
vt 0.250000 0.875000
vt 0.250000 0.822428
vt 0.218750 0.875000
vt 0.218750 0.814668
vt 0.187500 0.875000
vt 0.187500 0.812500
vt 0.212724 0.812500
vt 0.187500 0.804316
vt 0.156250 0.875000
vt 0.156250 0.812500
vt 0.156250 0.790590
vt 0.125000 0.875000
vt 0.125000 0.812500
vt 0.125000 0.772663
vt 0.093750 0.875000
vt 0.093750 0.812500
vt 0.093750 0.750000
vt 0.093908 0.750000
vt 0.093750 0.749894
vt 0.062500 0.875000
vt 0.062500 0.812500
vt 0.062500 0.750000
vt 0.062500 0.726453
vt 0.031250 0.812500
vt 0.031250 0.750000
vt 0.031250 0.699510
vt 0.000000 0.750000
vt 0.000000 0.706163
vt 0.027289 0.696026
vt 1.000000 0.706163
vt 1.000000 0.750000
vt 0.968750 0.750000
vt 0.968750 0.712286
vt 0.401469 0.651144
vt 0.154036 0.696026
vt 0.949337 0.712836
vt 0.426920 0.765743
vt 0.328341 0.651144
vt 0.365181 0.871693
vt 0.966601 0.750000
vt 0.968750 0.754937
vt 0.001037 0.812500
vt 0.000000 0.811085
vt 1.000000 0.811085
vt 0.060109 0.875000
vt 0.031250 0.851596
vt 0.062500 0.876871
vt 0.093750 0.894706
vt 0.125000 0.905727
vt 0.156250 0.912318
vt 0.187500 0.915648
vt 0.218750 0.916237
vt 0.250000 0.914173
vt 0.281250 0.909142
vt 0.312500 0.900310
vn 0.1850 0.9565 0.2254
vn 0.2230 0.8810 0.4173
vn 0.1374 0.8810 0.4528
vn 0.0464 0.8810 0.4709
vn -0.0464 0.8810 0.4709
vn -0.1374 0.8810 0.4528
vn -0.1847 0.7715 0.6088
vn -0.2230 0.8810 0.4173
vn -0.2999 0.7715 0.5611
vn -0.3002 0.8810 0.3658
vn -0.4036 0.7715 0.4918
vn -0.3658 0.8810 0.3002
vn -0.4918 0.7715 0.4036
vn -0.5987 0.6324 0.4916
vn -0.4173 0.8810 0.2231
vn -0.5611 0.7715 0.2999
vn -0.6831 0.6326 0.3651
vn -0.6088 0.7715 0.1847
vn -0.7708 0.6326 0.0759
vn -0.7708 0.6326 -0.0759
vn -0.7412 0.6326 0.2248
vn -0.5069 -0.8446 -0.1726
vn -0.1355 0.9225 -0.3614
vn -0.9586 0.2591 -0.1178
vn 0.3002 0.8810 0.3658
vn -0.7412 0.6326 -0.2248
vn -0.6088 0.7715 -0.1847
vn -0.6332 0.7715 0.0624
vn -0.6332 0.7715 -0.0624
vn -0.4528 0.8810 0.1374
vn -0.4709 0.8810 0.0464
vn -0.2790 0.9566 0.0846
vn -0.2571 0.9565 0.1374
vn -0.2254 0.9565 0.1850
vn -0.1850 0.9565 0.2254
vn -0.1374 0.9565 0.2571
vn -0.0846 0.9565 0.2790
vn -0.0286 0.9565 0.2902
vn 0.0286 0.9565 0.2902
vn 0.0846 0.9565 0.2790
vn 0.1374 0.9565 0.2571
usemtl None
s off
f 57/1/1 39/2/1 1/3/1
f 37/4/2 1/3/2 2/5/2 24/6/2 38/7/2
f 24/6/3 2/5/3 3/8/3 25/9/3
f 25/9/4 3/8/4 4/10/4 26/11/4
f 26/11/5 4/10/5 5/12/5 27/13/5
f 27/13/6 5/12/6 6/14/6 7/15/6 29/16/6
f 28/17/7 29/16/7 7/15/7
f 7/15/8 6/14/8 8/18/8 9/19/8
f 28/17/9 7/15/9 9/19/9 30/20/9
f 9/19/10 8/18/10 10/21/10 11/22/10
f 30/20/11 9/19/11 11/22/11 31/23/11
f 11/22/12 10/21/12 12/24/12 13/25/12
f 31/23/13 11/22/13 13/25/13 14/26/13 33/27/13
f 32/28/14 33/27/14 14/26/14
f 13/25/15 12/24/15 15/29/15 16/30/15
f 14/26/16 13/25/16 16/30/16 17/31/16
f 32/28/17 14/26/17 17/31/17 34/32/17
f 17/31/18 16/30/18 18/33/18 19/34/18
f 35/35/19 19/34/19 20/36/19 22/37/19 36/38/19
f 22/39/20 20/40/20 21/41/20 23/42/20
f 34/32/21 17/31/21 19/34/21 35/35/21
f 56/43/22 36/44/22 22/39/22 23/42/22 55/45/22
f 58/46/23 56/47/23 36/38/23 35/35/23 34/32/23 32/28/23 33/27/23 31/23/23 30/20/23 28/17/23 29/16/23 27/13/23 26/11/23 25/9/23 24/6/23 38/7/23
f 59/48/24 58/46/24 38/7/24 37/4/24
f 37/4/25 59/48/25 57/1/25 1/3/25
f 23/42/26 21/41/26 54/49/26 55/45/26
f 21/41/27 53/50/27 54/49/27
f 19/34/28 18/33/28 52/51/28 51/52/28 20/36/28
f 20/40/29 51/53/29 53/50/29 21/41/29
f 16/30/30 15/29/30 50/54/30 49/55/30 18/33/30
f 18/33/31 49/55/31 52/51/31
f 15/29/32 48/56/32 50/54/32
f 12/24/33 47/57/33 48/56/33 15/29/33
f 10/21/34 46/58/34 47/57/34 12/24/34
f 8/18/35 45/59/35 46/58/35 10/21/35
f 6/14/36 44/60/36 45/59/36 8/18/36
f 5/12/37 43/61/37 44/60/37 6/14/37
f 4/10/38 42/62/38 43/61/38 5/12/38
f 3/8/39 41/63/39 42/62/39 4/10/39
f 2/5/40 40/64/40 41/63/40 3/8/40
f 1/3/41 39/2/41 40/64/41 2/5/41
