# Blender v2.90.0 OBJ File: ''
# www.blender.org
mtllib untitled13.mtl
o Sphere.014
v 0.318190 0.555570 -0.768178
v 0.353553 0.382683 -0.853553
v 0.392848 0.707107 -0.587938
v 0.461940 0.555570 -0.691342
v 0.392848 0.831470 -0.392847
v 0.500000 0.707107 -0.500000
v 0.587938 0.555570 -0.587938
v 0.461940 0.831470 -0.308658
v 0.587938 0.707107 -0.392847
v 0.353554 0.923880 -0.146446
v 0.513280 0.831470 -0.212607
v 0.653282 0.707107 -0.270598
v 0.375331 0.923880 -0.074658
v 0.544895 0.831470 -0.108386
v 0.693520 0.707107 -0.137949
v 0.382684 0.923880 0.000000
v 0.555570 0.831470 0.000000
v 0.375331 0.923880 0.074658
v 0.544895 0.831470 0.108387
v 0.353554 0.923880 0.146447
v 0.513280 0.831470 0.212608
v 0.318190 0.923880 0.212608
v 0.270598 0.923880 0.270599
v 0.356856 0.354231 -0.861527
v 0.502665 0.418431 -0.752290
v 0.426021 0.382683 -0.814819
v 0.613028 0.489187 -0.613028
v 0.688159 0.560235 -0.459813
v 0.684454 0.555570 -0.470332
v 0.713027 0.628309 -0.295345
v 0.708780 0.688148 -0.140985
v 0.669878 0.737660 0.000000
v 0.698372 0.707107 -0.088683
v 0.610564 0.776521 0.121449
v 0.541280 0.806597 0.224206
v 0.299969 0.613586 -0.724190
v 0.290721 0.555570 -0.776510
v 0.257065 0.382683 -0.882823
v 0.323438 0.809638 -0.484059
v 0.313697 0.707107 -0.630245
v 0.323750 0.883702 -0.323749
v 0.324973 0.831470 -0.448550
v 0.320715 0.922256 -0.214295
v 0.314299 0.936768 -0.130187
v 0.320431 0.923880 -0.208414
v 0.307974 0.944712 -0.061260
v 0.301472 0.948515 0.000000
v 0.294383 0.948916 0.058557
v 0.286217 0.945989 0.118555
v 0.276259 0.939177 0.184591
v 0.263297 0.927012 0.263298
v 0.260539 0.923880 0.278854
v 0.243015 0.319722 -0.906947
v 0.417659 0.859936 0.279071
v 0.483008 0.831470 0.269242
v 0.291633 0.907979 0.291633
v 0.507984 0.816315 0.261499
v 0.225370 0.706297 0.086579
v 0.257459 0.918990 0.293158
vt 0.693003 0.687500
vt 0.687500 0.711428
vt 0.687500 0.687500
vt 0.704898 0.625000
vt 0.687500 0.625000
vt 0.708201 0.604023
vt 0.687500 0.615520
vt 0.673322 0.625000
vt 0.676483 0.750000
vt 0.656250 0.801528
vt 0.656250 0.750000
vt 0.650194 0.812500
vt 0.625000 0.847826
vt 0.625000 0.812500
vt 0.656250 0.687500
vt 0.625000 0.750000
vt 0.625000 0.687500
vt 0.656250 0.637923
vt 0.625000 0.663502
vt 0.595831 0.687500
vt 0.593750 0.812500
vt 0.593750 0.750000
vt 0.591769 0.875000
vt 0.562500 0.889156
vt 0.562500 0.875000
vt 0.562500 0.812500
vt 0.562500 0.750000
vt 0.593750 0.689424
vt 0.562500 0.717500
vt 0.531250 0.875000
vt 0.531250 0.812500
vt 0.531250 0.750000
vt 0.531250 0.742181
vt 0.500000 0.875000
vt 0.500000 0.812500
vt 0.520090 0.750000
vt 0.468750 0.875000
vt 0.468750 0.812500
vt 0.500000 0.765355
vt 0.468750 0.784885
vt 0.437500 0.875000
vt 0.437500 0.812500
vt 0.437500 0.800000
vt 0.406250 0.831753
vt 0.406250 0.875000
vt 0.375000 0.875000
vt 0.375000 0.864246
vt 0.369579 0.875000
vt 0.365181 0.871693
vt 0.375000 0.878440
vt 0.406250 0.891801
vt 0.437500 0.899283
vt 0.468750 0.902497
vt 0.500000 0.902057
vt 0.531250 0.897881
vt 0.593750 0.873902
vt 0.426920 0.765743
vt 0.423964 0.804884
vt 0.419074 0.812500
vn 0.2248 0.6326 -0.7412
vn 0.2563 0.4696 -0.8448
vn 0.2779 0.2890 -0.9161
vn 0.4513 0.2890 -0.8443
vn 0.2999 0.7715 -0.5611
vn 0.3002 0.8810 -0.3658
vn 0.4913 0.6326 -0.5987
vn 0.5601 0.4696 -0.6825
vn 0.6825 0.4696 -0.5601
vn 0.4918 0.7715 -0.4036
vn 0.2571 0.9565 -0.1374
vn 0.5611 0.7715 -0.2999
vn 0.6831 0.6326 -0.3651
vn 0.4528 0.8810 -0.1374
vn 0.6088 0.7715 -0.1847
vn 0.7412 0.6326 -0.2248
vn 0.4709 0.8810 -0.0464
vn 0.7708 0.6326 -0.0759
vn 0.4709 0.8810 0.0464
vn 0.6332 0.7715 0.0624
vn 0.4528 0.8810 0.1374
vn 0.6088 0.7715 0.1847
vn 0.3658 0.8810 0.3002
vn 0.6332 0.7715 -0.0624
vn 0.5987 0.6326 -0.4913
vn 0.4162 0.4696 -0.7786
vn 0.3002 0.8810 0.3658
vn 0.1850 0.9565 0.2254
vn 0.2254 0.9565 0.1850
vn 0.2571 0.9565 0.1374
vn 0.2790 0.9565 0.0846
vn 0.2902 0.9565 0.0286
vn 0.2902 0.9565 -0.0286
vn 0.2790 0.9565 -0.0846
vn 0.4173 0.8810 -0.2231
vn 0.3658 0.8810 -0.3002
vn 0.4036 0.7715 -0.4918
vn 0.3651 0.6326 -0.6831
vn -0.1355 0.9225 -0.3614
vn 0.5611 0.7715 0.2999
vn 0.4173 0.8810 0.2231
usemtl None
s off
f 37/1/1 36/2/1 1/3/1
f 38/4/2 37/1/2 1/3/2 2/5/2
f 53/6/3 38/4/3 2/5/3 24/7/3
f 24/7/4 2/5/4 26/8/4
f 40/9/5 39/10/5 3/11/5
f 42/12/6 41/13/6 5/14/6
f 4/15/7 3/11/7 6/16/7 7/17/7
f 25/18/8 4/15/8 7/17/8 27/19/8
f 27/19/9 7/17/9 29/20/9
f 6/16/10 5/14/10 8/21/10 9/22/10
f 45/23/11 44/24/11 10/25/11
f 9/22/12 8/21/12 11/26/12 12/27/12
f 28/28/13 9/22/13 12/27/13 30/29/13
f 11/26/14 10/25/14 13/30/14 14/31/14
f 12/27/15 11/26/15 14/31/15 15/32/15
f 30/29/16 12/27/16 15/32/16 31/33/16
f 14/31/17 13/30/17 16/34/17 17/35/17
f 31/33/18 15/32/18 33/36/18
f 17/35/19 16/34/19 18/37/19 19/38/19
f 32/39/20 17/35/20 19/38/20 34/40/20
f 19/38/21 18/37/21 20/41/21 21/42/21
f 34/40/22 19/38/22 21/42/22 35/43/22
f 54/44/23 22/45/23 23/46/23 56/47/23
f 15/32/24 14/31/24 17/35/24 32/39/24 33/36/24
f 7/17/25 6/16/25 9/22/25 28/28/25 29/20/25
f 2/5/26 1/3/26 4/15/26 25/18/26 26/8/26
f 56/47/27 23/46/27 52/48/27 59/49/27
f 23/46/28 51/50/28 52/48/28
f 22/45/29 50/51/29 51/50/29 23/46/29
f 20/41/30 49/52/30 50/51/30 22/45/30
f 18/37/31 48/53/31 49/52/31 20/41/31
f 16/34/32 47/54/32 48/53/32 18/37/32
f 13/30/33 46/55/33 47/54/33 16/34/33
f 10/25/34 44/24/34 46/55/34 13/30/34
f 8/21/35 43/56/35 45/23/35 10/25/35 11/26/35
f 5/14/36 41/13/36 43/56/36 8/21/36
f 3/11/37 39/10/37 42/12/37 5/14/37 6/16/37
f 1/3/38 36/2/38 40/9/38 3/11/38 4/15/38
f 53/6/39 58/57/39 57/58/39 35/43/39 34/40/39 32/39/39 33/36/39 31/33/39 30/29/39 28/28/39 29/20/39 27/19/39 25/18/39 26/8/39 24/7/39
f 35/43/40 21/42/40 55/59/40 57/58/40
f 21/42/41 20/41/41 22/45/41 54/44/41 55/59/41
