# Blender v2.90.0 OBJ File: ''
# www.blender.org
mtllib untitled5.mtl
o Sphere.006
v 0.961940 -0.195090 -0.191341
v 0.906128 -0.382683 -0.180240
v 0.980785 -0.195090 0.000000
v 0.923880 -0.382683 0.000000
v 0.961940 -0.195090 0.191342
v 0.906128 -0.382683 0.180240
v 0.906127 -0.195090 0.375331
v 0.853554 -0.382683 0.353554
v 0.831470 0.000000 0.555571
v 0.815493 -0.195090 0.544895
v 0.768178 -0.382683 0.513280
v 0.707107 0.000000 0.707107
v 0.693520 -0.195090 0.693520
v 0.653282 -0.382683 0.653282
v 0.555570 0.000000 0.831470
v 0.544895 -0.195090 0.815493
v 0.382683 0.000000 0.923880
v 0.375330 -0.195090 0.906128
v 0.195090 0.000000 0.980786
v -0.000000 0.000000 1.000000
v 0.894020 -0.238294 -0.370315
v 0.963924 -0.174551 -0.191736
v 0.944002 -0.195090 -0.250475
v 0.988863 -0.113082 0.000000
v 0.975349 -0.056273 0.194009
v 0.923287 -0.006513 0.382438
v 0.828834 0.032190 0.553809
v 0.908988 0.000000 0.410545
v 0.702942 0.059795 0.702943
v 0.551427 0.075726 0.825269
v 0.379688 0.079482 0.916647
v 0.193727 0.070948 0.973932
v -0.000000 0.050389 0.995037
v 0.869878 -0.324434 -0.360315
v 0.906006 -0.382915 -0.180216
v 0.905892 -0.382683 -0.181015
v 0.904544 -0.418858 0.000000
v 0.877108 -0.438038 0.174468
v 0.824841 -0.440827 0.341661
v 0.748358 -0.427280 0.500037
v 0.647821 -0.397131 0.647821
v 0.519379 -0.346495 0.777306
v 0.609721 -0.382683 0.689031
v 0.365929 -0.276076 0.883431
v 0.191486 -0.187564 0.962667
v 0.205762 -0.195090 0.957565
v -0.000000 -0.078677 0.992251
v 0.828110 -0.277220 -0.468694
v -0.076854 0.000000 0.992431
v -0.065807 0.039597 0.989619
v -0.083907 -0.027654 0.989013
vt 0.541294 0.437500
vt 0.531250 0.444080
vt 0.531250 0.437500
vt 0.531250 0.374916
vt 0.531390 0.375000
vt 0.531250 0.375000
vt 0.500000 0.437500
vt 0.500000 0.375000
vt 0.500000 0.361923
vt 0.468750 0.437500
vt 0.468750 0.375000
vt 0.468750 0.354989
vt 0.437500 0.375000
vt 0.437500 0.353981
vt 0.437500 0.437500
vt 0.432464 0.500000
vt 0.406250 0.510313
vt 0.406250 0.500000
vt 0.406250 0.437500
vt 0.406250 0.375000
vt 0.406250 0.358878
vt 0.375000 0.375000
vt 0.375000 0.369777
vt 0.375000 0.500000
vt 0.375000 0.437500
vt 0.343750 0.500000
vt 0.343750 0.437500
vt 0.365277 0.375000
vt 0.312500 0.500000
vt 0.312500 0.437500
vt 0.343750 0.387057
vt 0.312500 0.410518
vt 0.283699 0.437500
vt 0.281250 0.439911
vt 0.281250 0.500000
vt 0.250000 0.500000
vt 0.250000 0.474795
vt 0.281250 0.522729
vt 0.250000 0.516143
vt 0.312500 0.525463
vt 0.343750 0.524260
vt 0.375000 0.519156
vt 0.437500 0.497913
vt 0.468750 0.481972
vt 0.500000 0.463773
vt 0.562500 0.394407
vt 0.562500 0.423106
vt 0.582102 0.410137
vt 0.237689 0.500000
vt 0.236560 0.491141
vt 0.239440 0.512686
vn 0.9524 -0.0975 -0.2889
vn 0.8448 -0.4698 -0.2562
vn 0.9527 -0.2890 -0.0938
vn 0.8786 -0.4696 -0.0865
vn 0.9527 -0.2890 0.0938
vn 0.8786 -0.4696 0.0865
vn 0.8448 -0.4696 0.2563
vn 0.9161 -0.2890 0.2779
vn 0.8777 0.0976 0.4691
vn 0.8443 -0.2890 0.4513
vn 0.7786 -0.4696 0.4162
vn 0.6825 -0.4696 0.5601
vn 0.7693 -0.0976 0.6314
vn 0.7400 -0.2890 0.6073
vn 0.6314 -0.0976 0.7693
vn 0.5601 -0.4696 0.6825
vn 0.4691 -0.0976 0.8777
vn 0.4513 -0.2890 0.8443
vn 0.2779 -0.2890 0.9161
vn 0.0975 -0.0976 0.9904
vn 0.0975 0.0976 0.9904
vn 0.2889 0.0976 0.9524
vn 0.4691 0.0976 0.8777
vn 0.6314 0.0976 0.7693
vn 0.7693 0.0976 0.6314
vn 0.8777 -0.0976 0.4691
vn 0.9524 -0.0976 0.2889
vn 0.9904 -0.0976 0.0975
vn 0.9904 -0.0976 -0.0975
vn 0.9161 -0.2890 -0.2779
vn 0.8443 -0.2890 -0.4513
vn 0.2889 -0.0976 0.9524
vn 0.6073 -0.2890 0.7400
vn -0.0975 -0.0976 0.9904
vn -0.0975 0.0976 0.9904
usemtl None
s off
f 23/1/1 22/2/1 1/3/1
f 35/4/2 36/5/2 2/6/2
f 2/6/3 1/3/3 3/7/3 4/8/3
f 35/4/4 2/6/4 4/8/4 37/9/4
f 4/8/5 3/7/5 5/10/5 6/11/5
f 37/9/6 4/8/6 6/11/6 38/12/6
f 38/12/7 6/11/7 8/13/7 39/14/7
f 6/11/8 5/10/8 7/15/8 8/13/8
f 28/16/9 27/17/9 9/18/9
f 8/13/10 7/15/10 10/19/10 11/20/10
f 39/14/11 8/13/11 11/20/11 40/21/11
f 40/21/12 11/20/12 14/22/12 41/23/12
f 10/19/13 9/18/13 12/24/13 13/25/13
f 11/20/14 10/19/14 13/25/14 14/22/14
f 13/25/15 12/24/15 15/26/15 16/27/15
f 41/23/16 14/22/16 43/28/16
f 16/27/17 15/26/17 17/29/17 18/30/17
f 42/31/18 16/27/18 18/30/18 44/32/18
f 44/32/19 18/30/19 46/33/19
f 45/34/20 19/35/20 20/36/20 47/37/20
f 19/35/21 32/38/21 33/39/21 20/36/21
f 17/29/22 31/40/22 32/38/22 19/35/22
f 15/26/23 30/41/23 31/40/23 17/29/23
f 12/24/24 29/42/24 30/41/24 15/26/24
f 9/18/25 27/17/25 29/42/25 12/24/25
f 7/15/26 26/43/26 28/16/26 9/18/26 10/19/26
f 5/10/27 25/44/27 26/43/27 7/15/27
f 3/7/28 24/45/28 25/44/28 5/10/28
f 1/3/29 22/2/29 24/45/29 3/7/29
f 34/46/30 21/47/30 23/1/30 1/3/30 2/6/30 36/5/30
f 34/46/31 48/48/31 21/47/31
f 18/30/32 17/29/32 19/35/32 45/34/32 46/33/32
f 14/22/33 13/25/33 16/27/33 42/31/33 43/28/33
f 47/37/34 20/36/34 49/49/34 51/50/34
f 20/36/35 33/39/35 50/51/35 49/49/35
