# Blender v2.90.0 OBJ File: ''
# www.blender.org
mtllib untitled14.mtl
o Sphere.015
v 0.815493 -0.195090 -0.544895
v 0.923880 0.000000 -0.382683
v 0.906128 -0.195090 -0.375330
v 0.961940 0.195090 -0.191341
v 0.980785 0.000000 -0.195090
v 0.923880 0.382683 0.000000
v 0.980785 0.195090 0.000000
v 1.000000 0.000000 0.000000
v 0.815493 0.555570 0.162212
v 0.906128 0.382683 0.180240
v 0.961940 0.195090 0.191342
v 0.980785 0.000000 0.195091
v 0.653282 0.707107 0.270598
v 0.768178 0.555570 0.318190
v 0.853554 0.382683 0.353554
v 0.906127 0.195090 0.375331
v 0.923880 0.000000 0.382684
v 0.587938 0.707107 0.392848
v 0.691342 0.555570 0.461940
v 0.768178 0.382683 0.513280
v 0.815493 0.195090 0.544895
v 0.392848 0.831470 0.392848
v 0.500000 0.707107 0.500000
v 0.587938 0.555570 0.587938
v 0.653282 0.382683 0.653282
v 0.693520 0.195090 0.693520
v 0.308658 0.831470 0.461940
v 0.392848 0.707107 0.587938
v 0.461940 0.555570 0.691342
v 0.513280 0.382683 0.768178
v 0.544895 0.195090 0.815493
v 0.212608 0.831470 0.513280
v 0.270598 0.707107 0.653282
v 0.318190 0.555570 0.768178
v 0.353553 0.382683 0.853554
v 0.375330 0.195090 0.906128
v 0.162212 0.555570 0.815493
v 0.180240 0.382683 0.906128
v 0.191342 0.195090 0.961940
v -0.000000 0.195090 0.980785
v 0.894020 -0.238294 -0.370315
v 0.963924 -0.174551 -0.191736
v 0.944002 -0.195090 -0.250475
v 0.988863 -0.113082 0.000000
v 0.975349 -0.056273 0.194009
v 0.923287 -0.006513 0.382438
v 0.828834 0.032190 0.553809
v 0.908988 0.000000 0.410545
v 0.702942 0.059795 0.702943
v 0.551427 0.075726 0.825269
v 0.379688 0.079482 0.916647
v 0.193727 0.070948 0.973932
v -0.000000 0.050389 0.995037
v 0.802173 -0.247902 -0.535994
v 0.828110 -0.277220 -0.468694
v 0.464407 0.829034 0.310307
v 0.377870 0.842791 0.377871
v 0.451520 0.831470 0.321356
v 0.288549 0.850816 0.431845
v 0.209109 0.836356 0.504834
v 0.141893 0.682477 0.713345
v 0.206523 0.831470 0.515126
v 0.151491 0.707107 0.689412
v -0.000000 0.268895 0.958397
v 0.094217 0.555570 0.822190
v 0.035423 0.382683 0.920391
v -0.022427 0.195090 0.978577
v -0.065807 0.039597 0.989619
v -0.058765 -0.009229 0.824975
v 0.218664 0.853208 0.464151
v 0.820221 -0.137356 -0.548054
v 0.922758 0.012324 -0.382219
v 0.917228 0.000000 -0.395128
v 0.958061 0.208127 -0.190570
v 0.958521 0.195090 -0.202611
v 0.899356 0.428563 0.000000
v 0.920190 0.382683 -0.037459
v 0.756300 0.629110 0.150438
v 0.821759 0.555570 0.098599
v 0.578520 0.773517 0.239631
v 0.674049 0.707107 0.202136
v 0.755019 -0.195090 -0.618584
v 0.749811 -0.198649 -0.623235
v 0.507984 0.816315 0.261499
v 0.139317 0.135932 -0.467392
vt 0.609244 0.437500
vt 0.593750 0.455996
vt 0.593750 0.437500
vt 0.593750 0.419905
vt 0.562500 0.437500
vt 0.562500 0.423106
vt 0.582102 0.410137
vt 0.564749 0.500000
vt 0.562500 0.503948
vt 0.562500 0.500000
vt 0.533164 0.562500
vt 0.531250 0.566843
vt 0.531250 0.562500
vt 0.541294 0.437500
vt 0.506495 0.625000
vt 0.500000 0.641586
vt 0.500000 0.625000
vt 0.531250 0.500000
vt 0.500000 0.562500
vt 0.500000 0.500000
vt 0.531250 0.444080
vt 0.500000 0.463773
vt 0.468750 0.625000
vt 0.468750 0.562500
vt 0.468750 0.500000
vt 0.468750 0.481972
vt 0.481005 0.687500
vt 0.468750 0.717831
vt 0.468750 0.687500
vt 0.437500 0.687500
vt 0.437500 0.625000
vt 0.437500 0.562500
vt 0.437500 0.500000
vt 0.437500 0.497913
vt 0.406250 0.625000
vt 0.406250 0.562500
vt 0.432464 0.500000
vt 0.437500 0.750000
vt 0.406250 0.750000
vt 0.406250 0.687500
vt 0.375000 0.750000
vt 0.375000 0.687500
vt 0.375000 0.625000
vt 0.375000 0.562500
vt 0.406250 0.510313
vt 0.375000 0.519156
vt 0.401537 0.812500
vt 0.375000 0.820157
vt 0.375000 0.812500
vt 0.343750 0.562500
vt 0.343750 0.524260
vt 0.343750 0.812500
vt 0.343750 0.750000
vt 0.343750 0.687500
vt 0.343750 0.625000
vt 0.312500 0.750000
vt 0.312500 0.687500
vt 0.312500 0.625000
vt 0.312500 0.562500
vt 0.312500 0.525463
vt 0.312500 0.812500
vt 0.281250 0.687500
vt 0.281250 0.625000
vt 0.281250 0.562500
vt 0.281250 0.522729
vt 0.250000 0.562500
vt 0.250000 0.516143
vt 0.262056 0.496930
vt 0.239440 0.512686
vt 0.343750 0.825585
vt 0.406250 0.811276
vt 0.453629 0.750000
vt 0.437500 0.783375
vt 0.246337 0.562500
vt 0.268151 0.687500
vt 0.256142 0.625000
vt 0.250000 0.587089
vt 0.310676 0.812500
vt 0.284440 0.750000
vt 0.281250 0.739842
vt 0.312500 0.815805
vt 0.320024 0.827202
vt 0.590766 0.543517
vt 0.610348 0.436314
vt 0.423964 0.804884
vn 0.7693 -0.0975 -0.6314
vn 0.8443 -0.2890 -0.4513
vn 0.8777 0.0976 -0.4691
vn 0.9161 0.2890 -0.2779
vn 0.9161 -0.2890 -0.2779
vn 0.8786 0.4696 -0.0865
vn 0.9904 0.0976 -0.0975
vn 0.9904 -0.0976 -0.0975
vn 0.9527 0.2890 0.0938
vn 0.9904 0.0976 0.0975
vn 0.9904 -0.0976 0.0975
vn 0.7708 0.6326 0.0759
vn 0.8448 0.4696 0.2563
vn 0.9161 0.2890 0.2779
vn 0.9524 0.0976 0.2889
vn 0.9524 -0.0976 0.2889
vn 0.8443 0.2890 0.4513
vn 0.8777 -0.0976 0.4691
vn 0.6831 0.6326 0.3651
vn 0.7786 0.4696 0.4162
vn 0.5987 0.6326 0.4913
vn 0.6825 0.4696 0.5601
vn 0.7400 0.2890 0.6073
vn 0.7693 0.0976 0.6314
vn 0.3658 0.8810 0.3002
vn 0.6314 0.0976 0.7693
vn 0.4036 0.7715 0.4918
vn 0.4913 0.6326 0.5987
vn 0.5601 0.4696 0.6825
vn 0.6073 0.2890 0.7400
vn 0.3651 0.6326 0.6831
vn 0.4162 0.4696 0.7786
vn 0.4513 0.2890 0.8443
vn 0.4691 0.0976 0.8777
vn 0.2999 0.7715 0.5611
vn 0.2563 0.4696 0.8448
vn 0.2779 0.2890 0.9161
vn 0.2889 0.0976 0.9524
vn 0.0975 0.0976 0.9904
vn 0.8777 0.0976 0.4691
vn 0.9524 -0.0976 -0.2889
vn 0.1320 -0.9488 0.2870
vn 0.3002 0.8810 0.3658
vn 0.4918 0.7715 0.4036
vn 0.6088 0.7715 0.1847
vn -0.0976 0.0976 0.9904
vn 0.0865 0.4696 0.8786
vn 0.0938 0.2890 0.9527
vn -0.0938 0.2890 0.9527
vn 0.1847 0.7715 0.6088
vn 0.2248 0.6326 0.7412
vn 0.0759 0.6326 0.7708
vn 0.1374 0.8810 0.4528
vn 0.2230 0.8810 0.4173
vn -0.5069 -0.8446 -0.1726
vn 0.7400 -0.2890 -0.6073
vn 0.5611 0.7715 0.2999
vn 0.7412 0.6326 0.2248
vn 0.8786 0.4696 0.0865
vn 0.9527 0.2890 -0.0938
vn 0.9524 0.0976 -0.2889
vn 0.8777 -0.0976 -0.4691
usemtl None
s off
f 82/1/1 71/2/1 1/3/1
f 54/4/2 1/3/2 3/5/2 41/6/2 55/7/2
f 73/8/3 72/9/3 2/10/3
f 75/11/4 74/12/4 4/13/4
f 41/6/5 3/5/5 43/14/5
f 77/15/6 76/16/6 6/17/6
f 5/18/7 4/13/7 7/19/7 8/20/7
f 42/21/8 5/18/8 8/20/8 44/22/8
f 7/19/9 6/17/9 10/23/9 11/24/9
f 8/20/10 7/19/10 11/24/10 12/25/10
f 44/22/11 8/20/11 12/25/11 45/26/11
f 79/27/12 78/28/12 9/29/12
f 10/23/13 9/29/13 14/30/13 15/31/13
f 11/24/14 10/23/14 15/31/14 16/32/14
f 12/25/15 11/24/15 16/32/15 17/33/15
f 45/26/16 12/25/16 17/33/16 46/34/16
f 16/32/17 15/31/17 20/35/17 21/36/17
f 46/34/18 17/33/18 48/37/18
f 14/30/19 13/38/19 18/39/19 19/40/19
f 15/31/20 14/30/20 19/40/20 20/35/20
f 19/40/21 18/39/21 23/41/21 24/42/21
f 20/35/22 19/40/22 24/42/22 25/43/22
f 21/36/23 20/35/23 25/43/23 26/44/23
f 47/45/24 21/36/24 26/44/24 49/46/24
f 58/47/25 57/48/25 22/49/25
f 49/46/26 26/44/26 31/50/26 50/51/26
f 23/41/27 22/49/27 27/52/27 28/53/27
f 24/42/28 23/41/28 28/53/28 29/54/28
f 25/43/29 24/42/29 29/54/29 30/55/29
f 26/44/30 25/43/30 30/55/30 31/50/30
f 29/54/31 28/53/31 33/56/31 34/57/31
f 30/55/32 29/54/32 34/57/32 35/58/32
f 31/50/33 30/55/33 35/58/33 36/59/33
f 50/51/34 31/50/34 36/59/34 51/60/34
f 28/53/35 27/52/35 32/61/35 33/56/35
f 35/58/36 34/57/36 37/62/36 38/63/36
f 36/59/37 35/58/37 38/63/37 39/64/37
f 51/60/38 36/59/38 39/64/38 52/65/38
f 52/65/39 39/64/39 40/66/39 53/67/39
f 17/33/40 16/32/40 21/36/40 47/45/40 48/37/40
f 3/5/41 2/10/41 5/18/41 42/21/41 43/14/41
f 69/68/42 55/7/42 41/6/42 43/14/42 42/21/42 44/22/42 45/26/42 46/34/42 48/37/42 47/45/42 49/46/42 50/51/42 51/60/42 52/65/42 53/67/42 68/69/42
f 22/49/43 57/48/43 59/70/43 27/52/43
f 18/39/44 56/71/44 58/47/44 22/49/44 23/41/44
f 81/72/45 80/73/45 13/38/45
f 53/67/46 40/66/46 67/74/46 68/69/46
f 38/63/47 37/62/47 65/75/47 66/76/47
f 39/64/48 38/63/48 66/76/48 64/77/48 40/66/48
f 40/66/49 64/77/49 67/74/49
f 33/56/50 32/61/50 62/78/50 63/79/50
f 34/57/51 33/56/51 63/79/51 61/80/51 37/62/51
f 37/62/52 61/80/52 65/75/52
f 32/61/53 60/81/53 62/78/53
f 27/52/54 59/70/54 70/82/54 60/81/54 32/61/54
f 54/4/55 55/7/55 69/68/55 85/83/55 83/84/55
f 54/4/56 83/84/56 82/1/56 1/3/56
f 13/38/57 80/73/57 84/85/57 56/71/57 18/39/57
f 9/29/58 78/28/58 81/72/58 13/38/58 14/30/58
f 6/17/59 76/16/59 79/27/59 9/29/59 10/23/59
f 4/13/60 74/12/60 77/15/60 6/17/60 7/19/60
f 2/10/61 72/9/61 75/11/61 4/13/61 5/18/61
f 1/3/62 71/2/62 73/8/62 2/10/62 3/5/62
