# Blender v2.90.0 OBJ File: ''
# www.blender.org
mtllib untitled12.mtl
o Sphere.013
v 0.195090 0.000000 -0.980785
v 0.191342 -0.195090 -0.961940
v 0.382684 0.000000 -0.923879
v 0.375330 -0.195090 -0.906127
v 0.544895 -0.195090 -0.815493
v 0.693520 -0.195090 -0.693520
v 0.379538 0.083466 -0.916285
v 0.553442 -0.038893 -0.828284
v 0.499864 0.000000 -0.861245
v 0.696542 -0.151699 -0.696542
v 0.746027 -0.195090 -0.629540
v 0.193055 0.105932 -0.970552
v 0.111609 -0.195090 -0.969793
v 0.166036 0.000000 -0.983647
v 0.214125 0.190755 -0.955473
v 0.181879 -0.354994 -0.914366
v 0.357544 -0.348311 -0.863186
v 0.525250 -0.311659 -0.786092
v 0.682956 -0.244341 -0.682956
v 0.749811 -0.198649 -0.623235
v 0.067447 -0.340424 -0.930056
vt 0.738559 0.389080
vt 0.731772 0.437500
vt 0.718750 0.437500
vt 0.718750 0.384225
vt 0.723404 0.500000
vt 0.718750 0.533937
vt 0.718750 0.500000
vt 0.687500 0.500000
vt 0.687500 0.437500
vt 0.687500 0.386452
vt 0.656250 0.437500
vt 0.656250 0.398663
vt 0.625000 0.437500
vt 0.625000 0.421091
vt 0.611547 0.437500
vt 0.610348 0.436314
vt 0.625000 0.451401
vt 0.666319 0.500000
vt 0.656250 0.487540
vt 0.687500 0.526740
vt 0.714908 0.561111
vn 0.0938 -0.2890 -0.9527
vn 0.0975 0.0976 -0.9904
vn 0.0976 -0.0975 -0.9904
vn 0.2889 -0.0975 -0.9524
vn 0.2779 -0.2890 -0.9161
vn 0.4513 -0.2890 -0.8443
vn 0.6073 -0.2890 -0.7400
vn 0.7400 -0.2890 -0.6073
vn 0.7693 -0.0975 -0.6314
vn 0.4691 -0.0975 -0.8777
vn 0.6314 -0.0976 -0.7693
vn 0.4691 0.0975 -0.8777
vn 0.2889 0.0975 -0.9524
usemtl None
s off
f 21/1/1 13/2/1 2/3/1 16/4/1
f 14/5/2 12/6/2 1/7/2
f 13/2/3 14/5/3 1/7/3 2/3/3
f 2/3/4 1/7/4 3/8/4 4/9/4
f 16/4/5 2/3/5 4/9/5 17/10/5
f 17/10/6 4/9/6 5/11/6 18/12/6
f 18/12/7 5/11/7 6/13/7 19/14/7
f 19/14/8 6/13/8 11/15/8 20/16/8
f 6/13/9 10/17/9 11/15/9
f 4/9/10 3/8/10 9/18/10 8/19/10 5/11/10
f 5/11/11 8/19/11 10/17/11 6/13/11
f 3/8/12 7/20/12 9/18/12
f 1/7/13 12/6/13 15/21/13 7/20/13 3/8/13
